<svg xmlns="http://www.w3.org/2000/svg" viewBox="0 0 1404 1872"><defs><style>.cls-1{fill:#d1d3d4;}.cls-2{fill:#fff;}.cls-3{fill:#231f20;}.cls-4{fill:#a7a9ac;}.cls-5{font-size:18px;fill:#6d6e71;font-family:AvenirNextCondensed-Regular, Avenir Next Condensed;letter-spacing:-0.01em;}.cls-6{letter-spacing:0.03em;}.cls-7{letter-spacing:0.06em;}.cls-8{letter-spacing:0.05em;}.cls-9{letter-spacing:0.05em;}.cls-10{letter-spacing:0.02em;}.cls-11{letter-spacing:0.03em;}.cls-12{letter-spacing:0.05em;}.cls-13{letter-spacing:0.01em;}.cls-14{letter-spacing:-0.02em;}.cls-15{letter-spacing:0.05em;}.cls-16{letter-spacing:0.05em;}.cls-17{letter-spacing:0.04em;}.cls-18{letter-spacing:-0.02em;}.cls-19{letter-spacing:0.04em;}.cls-20{letter-spacing:0.01em;}.cls-21{letter-spacing:0.01em;}.cls-22{letter-spacing:0.06em;}.cls-23{letter-spacing:0.04em;}.cls-24{letter-spacing:0.01em;}.cls-25{letter-spacing:0.02em;}.cls-26,.cls-27,.cls-28,.cls-29,.cls-30,.cls-31,.cls-32,.cls-33,.cls-34,.cls-35,.cls-36,.cls-48{fill:none;stroke-miterlimit:10;}.cls-26,.cls-27,.cls-28{stroke:#6d6e71;}.cls-26,.cls-27,.cls-28,.cls-29,.cls-30,.cls-31,.cls-32,.cls-33,.cls-34,.cls-35,.cls-36{stroke-width:0.5px;}.cls-27{stroke-dasharray:1 2;}.cls-28{stroke-dasharray:1 2;}.cls-29,.cls-30,.cls-31,.cls-32{stroke:#a7a9ac;}.cls-30{stroke-dasharray:1 1.5;}.cls-31{stroke-dasharray:0.5 1.99;}.cls-32{stroke-dasharray:1 2;}.cls-33,.cls-34,.cls-48{stroke:#808285;}.cls-34{stroke-dasharray:0.5 2;}.cls-35,.cls-36{stroke:#58595b;}.cls-36{stroke-dasharray:1 2;}.cls-37{font-size:28px;}.cls-37,.cls-38{fill:#939598;}.cls-37,.cls-38,.cls-45{font-family:AvenirNext-Regular, Avenir Next;}.cls-38,.cls-45{font-size:20px;}.cls-39{letter-spacing:-0.02em;}.cls-40{letter-spacing:-0.02em;}.cls-41{letter-spacing:-0.03em;}.cls-42{letter-spacing:-0.03em;}.cls-43{letter-spacing:-0.01em;}.cls-44{letter-spacing:-0.02em;}.cls-45,.cls-47{fill:#bcbec0;}.cls-46{letter-spacing:-0.06em;}.cls-48{stroke-dasharray:0.99 1.98;}</style></defs><g id="Layer_1" data-name="Layer 1"><rect class="cls-1" width="1404" height="1872"/></g><g id="Layer_3" data-name="Layer 3"><rect class="cls-2" x="77.71" y="111.5" width="787.28" height="1426.94" rx="7.5"/><path class="cls-3" d="M857.49,112a7,7,0,0,1,7,7V1531a7,7,0,0,1-7,7H85.21a7,7,0,0,1-7-7V119a7,7,0,0,1,7-7H857.49m0-1H85.21a8,8,0,0,0-8,8V1531a8,8,0,0,0,8,8H857.49a8,8,0,0,0,8-8V119a8,8,0,0,0-8-8Z"/><path class="cls-4" d="M857.49,111a8,8,0,0,1,8,8V1531a8,8,0,0,1-8,8H85.21a8,8,0,0,1-8-8V119a8,8,0,0,1,8-8H857.49m0-2H85.21a10,10,0,0,0-10,10V1531a10,10,0,0,0,10,10H857.49a10,10,0,0,0,10-10V119a10,10,0,0,0-10-10Z"/><rect class="cls-2" x="77.71" y="1565.05" width="1298.82" height="273.86" rx="7.5"/><path class="cls-3" d="M1369,1565.55a7,7,0,0,1,7,7v258.86a7,7,0,0,1-7,7H85.21a7,7,0,0,1-7-7V1572.55a7,7,0,0,1,7-7H1369m0-1H85.21a8,8,0,0,0-8,8v258.86a8,8,0,0,0,8,8H1369a8,8,0,0,0,8-8V1572.55a8,8,0,0,0-8-8Z"/><path class="cls-4" d="M1369,1564.55a8,8,0,0,1,8,8v258.86a8,8,0,0,1-8,8H85.21a8,8,0,0,1-8-8V1572.55a8,8,0,0,1,8-8H1369m0-2H85.21a10,10,0,0,0-10,10v258.86a10,10,0,0,0,10,10H1369a10,10,0,0,0,10-10V1572.55a10,10,0,0,0-10-10Z"/><rect class="cls-2" x="889.67" y="111.5" width="487" height="1426.94" rx="7.5"/><path class="cls-3" d="M1369.17,112a7,7,0,0,1,7,7V1531a7,7,0,0,1-7,7h-472a7,7,0,0,1-7-7V119a7,7,0,0,1,7-7h472m0-1h-472a8,8,0,0,0-8,8V1531a8,8,0,0,0,8,8h472a8,8,0,0,0,8-8V119a8,8,0,0,0-8-8Z"/><path class="cls-4" d="M1369.17,111a8,8,0,0,1,8,8V1531a8,8,0,0,1-8,8h-472a8,8,0,0,1-8-8V119a8,8,0,0,1,8-8h472m0-2h-472a10,10,0,0,0-10,10V1531a10,10,0,0,0,10,10h472a10,10,0,0,0,10-10V119a10,10,0,0,0-10-10Z"/><rect class="cls-2" x="77.71" y="27.33" width="787.28" height="61.08" rx="7.5"/><path class="cls-3" d="M857.49,27.83a7,7,0,0,1,7,7V80.91a7,7,0,0,1-7,7H85.21a7,7,0,0,1-7-7V34.83a7,7,0,0,1,7-7H857.49m0-1H85.21a8,8,0,0,0-8,8V80.91a8,8,0,0,0,8,8H857.49a8,8,0,0,0,8-8V34.83a8,8,0,0,0-8-8Z"/><path class="cls-4" d="M857.49,26.83a8,8,0,0,1,8,8V80.91a8,8,0,0,1-8,8H85.21a8,8,0,0,1-8-8V34.83a8,8,0,0,1,8-8H857.49m0-2H85.21a10,10,0,0,0-10,10V80.91a10,10,0,0,0,10,10H857.49a10,10,0,0,0,10-10V34.83a10,10,0,0,0-10-10Z"/><text class="cls-5" transform="translate(100.33 198.39)">7<tspan class="cls-6" x="8.31" y="0">:</tspan><tspan class="cls-7" x="13.59" y="0">0</tspan><tspan class="cls-8" x="23.17" y="0">0 </tspan><tspan class="cls-9" x="36.76" y="0">A</tspan><tspan class="cls-8" x="46.1" y="0">M</tspan><tspan class="cls-10"><tspan x="-0.55" y="88">8</tspan><tspan class="cls-6" x="8.31" y="88">:</tspan><tspan class="cls-7" x="13.59" y="88">0</tspan><tspan class="cls-8" x="23.17" y="88">0 </tspan><tspan class="cls-9" x="36.76" y="88">A</tspan><tspan class="cls-8" x="46.1" y="88">M</tspan></tspan><tspan class="cls-11"><tspan x="-0.75" y="176">9</tspan><tspan class="cls-6" x="8.31" y="176">:</tspan><tspan class="cls-7" x="13.59" y="176">0</tspan><tspan class="cls-12" x="23.17" y="176">0 </tspan><tspan class="cls-9" x="36.76" y="176">A</tspan><tspan class="cls-12" x="46.1" y="176">M</tspan></tspan><tspan class="cls-13"><tspan x="-9.37" y="264">1</tspan><tspan class="cls-11" x="-0.75" y="264">0</tspan><tspan class="cls-6" x="8.31" y="264">:</tspan><tspan class="cls-7" x="13.59" y="264">0</tspan><tspan class="cls-8" x="23.17" y="264">0 </tspan><tspan class="cls-9" x="36.76" y="264">A</tspan><tspan class="cls-8" x="46.1" y="264">M</tspan></tspan><tspan class="cls-14"><tspan x="-7.79" y="352">11</tspan><tspan class="cls-6" x="8.31" y="352">:</tspan><tspan class="cls-7" x="13.59" y="352">0</tspan><tspan class="cls-8" x="23.17" y="352">0 </tspan><tspan class="cls-9" x="36.76" y="352">A</tspan><tspan class="cls-8" x="46.1" y="352">M</tspan></tspan><tspan class="cls-15"><tspan x="15.75" y="440">N</tspan><tspan class="cls-16" x="26.67" y="440">O</tspan><tspan class="cls-17" x="37.8" y="440">O</tspan><tspan class="cls-8" x="48.86" y="440">N</tspan></tspan><tspan class="cls-18"><tspan x="0.55" y="528">1</tspan><tspan class="cls-6" x="8.6" y="528">:</tspan><tspan class="cls-7" x="13.89" y="528">0</tspan><tspan class="cls-8" x="23.47" y="528">0 </tspan><tspan class="cls-19" x="37.06" y="528">P</tspan><tspan class="cls-8" x="46.1" y="528">M</tspan></tspan><tspan class="cls-20"><tspan x="-0.12" y="616">2</tspan><tspan class="cls-6" x="8.6" y="616">:</tspan><tspan class="cls-7" x="13.89" y="616">0</tspan><tspan class="cls-12" x="23.47" y="616">0 </tspan><tspan class="cls-19" x="37.06" y="616">P</tspan><tspan class="cls-8" x="46.1" y="616">M</tspan></tspan><tspan class="cls-21"><tspan x="-0.08" y="704">3</tspan><tspan class="cls-6" x="8.6" y="704">:</tspan><tspan class="cls-22" x="13.89" y="704">0</tspan><tspan class="cls-8" x="23.47" y="704">0 </tspan><tspan class="cls-19" x="37.06" y="704">P</tspan><tspan class="cls-8" x="46.1" y="704">M</tspan></tspan><tspan class="cls-13"><tspan x="-0.02" y="792">4</tspan><tspan class="cls-6" x="8.6" y="792">:</tspan><tspan class="cls-7" x="13.89" y="792">0</tspan><tspan class="cls-8" x="23.47" y="792">0 </tspan><tspan class="cls-23" x="37.06" y="792">P</tspan><tspan class="cls-8" x="46.1" y="792">M</tspan></tspan><tspan class="cls-24"><tspan x="-0.03" y="880">5</tspan><tspan class="cls-6" x="8.6" y="880">:</tspan><tspan class="cls-7" x="13.89" y="880">0</tspan><tspan class="cls-8" x="23.47" y="880">0 </tspan><tspan class="cls-19" x="37.06" y="880">P</tspan><tspan class="cls-8" x="46.1" y="880">M</tspan></tspan><tspan class="cls-25"><tspan x="-0.22" y="968">6</tspan><tspan class="cls-6" x="8.6" y="968">:</tspan><tspan class="cls-7" x="13.89" y="968">0</tspan><tspan class="cls-8" x="23.47" y="968">0 </tspan><tspan class="cls-19" x="37.06" y="968">P</tspan><tspan class="cls-8" x="46.1" y="968">M</tspan></tspan><tspan x="0.3" y="1056">7</tspan><tspan class="cls-6" x="8.6" y="1056">:</tspan><tspan class="cls-7" x="13.89" y="1056">0</tspan><tspan class="cls-8" x="23.47" y="1056">0 </tspan><tspan class="cls-19" x="37.06" y="1056">P</tspan><tspan class="cls-8" x="46.1" y="1056">M</tspan><tspan class="cls-10"><tspan x="-0.25" y="1144">8</tspan><tspan class="cls-6" x="8.6" y="1144">:</tspan><tspan class="cls-7" x="13.89" y="1144">0</tspan><tspan class="cls-8" x="23.47" y="1144">0 </tspan><tspan class="cls-19" x="37.06" y="1144">P</tspan><tspan class="cls-8" x="46.1" y="1144">M</tspan></tspan><tspan class="cls-11"><tspan x="-0.45" y="1232">9</tspan><tspan class="cls-6" x="8.6" y="1232">:</tspan><tspan class="cls-7" x="13.89" y="1232">0</tspan><tspan class="cls-12" x="23.47" y="1232">0 </tspan><tspan class="cls-19" x="37.06" y="1232">P</tspan><tspan class="cls-8" x="46.1" y="1232">M</tspan></tspan></text></g><g id="Layer_2" data-name="Layer 2"><polyline class="cls-26" points="849.68 254.17 850.18 254.17 849.68 254.17"/><line class="cls-27" x1="847.69" y1="254.17" x2="90.93" y2="254.17"/><polyline class="cls-26" points="89.93 254.17 89.43 254.17 89.93 254.17"/><line class="cls-27" x1="91.93" y1="254.17" x2="848.68" y2="254.17"/><polyline class="cls-26" points="849.68 171.54 850.18 171.54 849.68 171.54"/><line class="cls-27" x1="847.69" y1="171.54" x2="90.93" y2="171.54"/><polyline class="cls-26" points="89.93 171.54 89.43 171.54 89.93 171.54"/><line class="cls-27" x1="91.93" y1="171.54" x2="848.68" y2="171.54"/><polyline class="cls-26" points="849.68 298.23 850.18 298.23 849.68 298.23"/><line class="cls-28" x1="847.68" y1="298.23" x2="168.06" y2="298.23"/><polyline class="cls-26" points="167.06 298.23 166.56 298.23 167.06 298.23"/><line class="cls-28" x1="169.06" y1="298.23" x2="848.68" y2="298.23"/><polyline class="cls-26" points="849.68 342.3 850.18 342.3 849.68 342.3"/><line class="cls-27" x1="847.69" y1="342.29" x2="90.93" y2="342.29"/><polyline class="cls-26" points="89.93 342.3 89.43 342.3 89.93 342.3"/><line class="cls-27" x1="91.93" y1="342.29" x2="848.68" y2="342.29"/><polyline class="cls-26" points="849.68 386.36 850.18 386.36 849.68 386.36"/><line class="cls-28" x1="847.68" y1="386.36" x2="168.06" y2="386.36"/><polyline class="cls-26" points="167.06 386.36 166.56 386.36 167.06 386.36"/><line class="cls-28" x1="169.06" y1="386.36" x2="848.68" y2="386.36"/><polyline class="cls-26" points="849.68 474.49 850.18 474.49 849.68 474.49"/><line class="cls-28" x1="847.68" y1="474.49" x2="168.06" y2="474.49"/><polyline class="cls-26" points="167.06 474.49 166.56 474.49 167.06 474.49"/><line class="cls-28" x1="169.06" y1="474.49" x2="848.68" y2="474.49"/><polyline class="cls-26" points="849.68 518.55 850.18 518.55 849.68 518.55"/><line class="cls-27" x1="847.69" y1="518.55" x2="90.93" y2="518.55"/><polyline class="cls-26" points="89.93 518.55 89.43 518.55 89.93 518.55"/><line class="cls-27" x1="91.93" y1="518.55" x2="848.68" y2="518.55"/><polyline class="cls-26" points="849.68 562.62 850.18 562.62 849.68 562.62"/><line class="cls-28" x1="847.68" y1="562.62" x2="168.06" y2="562.62"/><polyline class="cls-26" points="167.06 562.62 166.56 562.62 167.06 562.62"/><line class="cls-28" x1="169.06" y1="562.62" x2="848.68" y2="562.62"/><polyline class="cls-26" points="849.68 606.68 850.18 606.68 849.68 606.68"/><line class="cls-27" x1="847.69" y1="606.68" x2="90.93" y2="606.68"/><polyline class="cls-26" points="89.93 606.68 89.43 606.68 89.93 606.68"/><line class="cls-27" x1="91.93" y1="606.68" x2="848.68" y2="606.68"/><polyline class="cls-26" points="849.68 430.42 850.18 430.42 849.68 430.42"/><line class="cls-27" x1="847.69" y1="430.42" x2="90.93" y2="430.42"/><polyline class="cls-26" points="89.93 430.42 89.43 430.42 89.93 430.42"/><line class="cls-27" x1="91.93" y1="430.42" x2="848.68" y2="430.42"/><polyline class="cls-26" points="849.68 210.1 850.18 210.1 849.68 210.1"/><line class="cls-28" x1="847.68" y1="210.1" x2="168.06" y2="210.1"/><polyline class="cls-26" points="167.06 210.1 166.56 210.1 167.06 210.1"/><line class="cls-28" x1="169.06" y1="210.1" x2="848.68" y2="210.1"/><polyline class="cls-26" points="849.68 694.81 850.18 694.81 849.68 694.81"/><line class="cls-27" x1="847.69" y1="694.81" x2="90.93" y2="694.81"/><polyline class="cls-26" points="89.93 694.81 89.43 694.81 89.93 694.81"/><line class="cls-27" x1="91.93" y1="694.81" x2="848.68" y2="694.81"/><polyline class="cls-26" points="849.68 738.87 850.18 738.87 849.68 738.87"/><line class="cls-28" x1="847.68" y1="738.87" x2="168.06" y2="738.87"/><polyline class="cls-26" points="167.06 738.87 166.56 738.87 167.06 738.87"/><line class="cls-28" x1="169.06" y1="738.87" x2="848.68" y2="738.87"/><polyline class="cls-26" points="849.68 782.94 850.18 782.94 849.68 782.94"/><line class="cls-27" x1="847.69" y1="782.94" x2="90.93" y2="782.94"/><polyline class="cls-26" points="89.93 782.94 89.43 782.94 89.93 782.94"/><line class="cls-27" x1="91.93" y1="782.94" x2="848.68" y2="782.94"/><polyline class="cls-26" points="849.68 827 850.18 827 849.68 827"/><line class="cls-28" x1="847.68" y1="827" x2="168.06" y2="827"/><polyline class="cls-26" points="167.06 827 166.56 827 167.06 827"/><line class="cls-28" x1="169.06" y1="827" x2="848.68" y2="827"/><polyline class="cls-26" points="849.68 915.13 850.18 915.13 849.68 915.13"/><line class="cls-28" x1="847.68" y1="915.13" x2="168.06" y2="915.13"/><polyline class="cls-26" points="167.06 915.13 166.56 915.13 167.06 915.13"/><line class="cls-28" x1="169.06" y1="915.13" x2="848.68" y2="915.13"/><polyline class="cls-26" points="849.68 959.19 850.18 959.19 849.68 959.19"/><line class="cls-27" x1="847.69" y1="959.19" x2="90.93" y2="959.19"/><polyline class="cls-26" points="89.93 959.19 89.43 959.19 89.93 959.19"/><line class="cls-27" x1="91.93" y1="959.19" x2="848.68" y2="959.19"/><polyline class="cls-26" points="849.68 1003.26 850.18 1003.26 849.68 1003.26"/><line class="cls-28" x1="847.68" y1="1003.26" x2="168.06" y2="1003.26"/><polyline class="cls-26" points="167.06 1003.26 166.56 1003.26 167.06 1003.26"/><line class="cls-28" x1="169.06" y1="1003.26" x2="848.68" y2="1003.26"/><polyline class="cls-26" points="849.68 1047.32 850.18 1047.32 849.68 1047.32"/><line class="cls-27" x1="847.69" y1="1047.32" x2="90.93" y2="1047.32"/><polyline class="cls-26" points="89.93 1047.32 89.43 1047.32 89.93 1047.32"/><line class="cls-27" x1="91.93" y1="1047.32" x2="848.68" y2="1047.32"/><polyline class="cls-26" points="849.68 871.07 850.18 871.07 849.68 871.07"/><line class="cls-27" x1="847.69" y1="871.06" x2="90.93" y2="871.06"/><polyline class="cls-26" points="89.93 871.07 89.43 871.07 89.93 871.07"/><line class="cls-27" x1="91.93" y1="871.06" x2="848.68" y2="871.06"/><polyline class="cls-26" points="849.68 650.74 850.18 650.74 849.68 650.74"/><line class="cls-28" x1="847.68" y1="650.74" x2="168.06" y2="650.74"/><polyline class="cls-26" points="167.06 650.74 166.56 650.74 167.06 650.74"/><line class="cls-28" x1="169.06" y1="650.74" x2="848.68" y2="650.74"/><polyline class="cls-26" points="849.68 1135.45 850.18 1135.45 849.68 1135.45"/><line class="cls-27" x1="847.69" y1="1135.45" x2="90.93" y2="1135.45"/><polyline class="cls-26" points="89.93 1135.45 89.43 1135.45 89.93 1135.45"/><line class="cls-27" x1="91.93" y1="1135.45" x2="848.68" y2="1135.45"/><polyline class="cls-26" points="849.68 1179.51 850.18 1179.51 849.68 1179.51"/><line class="cls-28" x1="847.68" y1="1179.51" x2="168.06" y2="1179.51"/><polyline class="cls-26" points="167.06 1179.51 166.56 1179.51 167.06 1179.51"/><line class="cls-28" x1="169.06" y1="1179.51" x2="848.68" y2="1179.51"/><polyline class="cls-26" points="849.68 1223.58 850.18 1223.58 849.68 1223.58"/><line class="cls-27" x1="847.69" y1="1223.58" x2="90.93" y2="1223.58"/><polyline class="cls-26" points="89.93 1223.58 89.43 1223.58 89.93 1223.58"/><line class="cls-27" x1="91.93" y1="1223.58" x2="848.68" y2="1223.58"/><polyline class="cls-26" points="849.68 1267.64 850.18 1267.64 849.68 1267.64"/><line class="cls-28" x1="847.68" y1="1267.64" x2="168.06" y2="1267.64"/><polyline class="cls-26" points="167.06 1267.64 166.56 1267.64 167.06 1267.64"/><line class="cls-28" x1="169.06" y1="1267.64" x2="848.68" y2="1267.64"/><polyline class="cls-26" points="849.68 1355.77 850.18 1355.77 849.68 1355.77"/><line class="cls-28" x1="847.68" y1="1355.77" x2="168.06" y2="1355.77"/><polyline class="cls-26" points="167.06 1355.77 166.56 1355.77 167.06 1355.77"/><line class="cls-28" x1="169.06" y1="1355.77" x2="848.68" y2="1355.77"/><polyline class="cls-26" points="849.68 1399.84 850.18 1399.84 849.68 1399.84"/><line class="cls-27" x1="847.69" y1="1399.83" x2="90.93" y2="1399.83"/><polyline class="cls-26" points="89.93 1399.84 89.43 1399.84 89.93 1399.84"/><line class="cls-27" x1="91.93" y1="1399.83" x2="848.68" y2="1399.83"/><polyline class="cls-26" points="849.68 1443.9 850.18 1443.9 849.68 1443.9"/><line class="cls-28" x1="847.68" y1="1443.9" x2="168.06" y2="1443.9"/><polyline class="cls-26" points="167.06 1443.9 166.56 1443.9 167.06 1443.9"/><line class="cls-28" x1="169.06" y1="1443.9" x2="848.68" y2="1443.9"/><polyline class="cls-26" points="849.68 1487.96 850.18 1487.96 849.68 1487.96"/><line class="cls-27" x1="847.69" y1="1487.96" x2="90.93" y2="1487.96"/><polyline class="cls-26" points="89.93 1487.96 89.43 1487.96 89.93 1487.96"/><line class="cls-27" x1="91.93" y1="1487.96" x2="848.68" y2="1487.96"/><polyline class="cls-29" points="727.12 1603.3 727.12 1602.8 727.12 1603.3"/><line class="cls-30" x1="727.12" y1="1604.79" x2="727.12" y2="1830.89"/><polyline class="cls-29" points="727.12 1831.63 727.12 1832.13 727.12 1831.63"/><line class="cls-30" x1="727.12" y1="1830.14" x2="727.12" y2="1604.05"/><polyline class="cls-29" points="610.01 1603.05 610.01 1602.8 610.01 1603.05"/><line class="cls-31" x1="610.01" y1="1605.04" x2="610.01" y2="1830.89"/><polyline class="cls-29" points="610.01 1831.88 610.01 1832.13 610.01 1831.88"/><line class="cls-31" x1="610.01" y1="1829.89" x2="610.01" y2="1604.04"/><polyline class="cls-29" points="1247.46 1603.05 1247.46 1602.8 1247.46 1603.05"/><line class="cls-31" x1="1247.46" y1="1605.04" x2="1247.46" y2="1830.89"/><polyline class="cls-29" points="1247.46 1831.88 1247.46 1832.13 1247.46 1831.88"/><line class="cls-31" x1="1247.46" y1="1829.89" x2="1247.46" y2="1604.04"/><polyline class="cls-29" points="244.24 172.04 244.24 171.54 244.24 172.04"/><line class="cls-32" x1="244.24" y1="174.04" x2="244.24" y2="1503.15"/><polyline class="cls-29" points="244.24 1504.15 244.24 1504.65 244.24 1504.15"/><line class="cls-32" x1="244.24" y1="1502.15" x2="244.24" y2="173.04"/><polyline class="cls-29" points="172.62 172.04 172.62 171.54 172.62 172.04"/><line class="cls-32" x1="172.62" y1="174.04" x2="172.62" y2="1503.15"/><polyline class="cls-29" points="172.62 1504.15 172.62 1504.65 172.62 1504.15"/><line class="cls-32" x1="172.62" y1="1502.15" x2="172.62" y2="173.04"/><polyline class="cls-33" points="1366.54 1620.16 1366.79 1620.16 1366.54 1620.16"/><line class="cls-34" x1="1364.54" y1="1620.16" x2="85.31" y2="1620.16"/><polyline class="cls-33" points="84.31 1620.16 84.06 1620.16 84.31 1620.16"/><line class="cls-34" x1="86.31" y1="1620.16" x2="1365.54" y2="1620.16"/><polyline class="cls-33" points="1366.54 1661.43 1366.79 1661.43 1366.54 1661.43"/><line class="cls-34" x1="1364.54" y1="1661.43" x2="85.31" y2="1661.43"/><polyline class="cls-33" points="84.31 1661.43 84.06 1661.43 84.31 1661.43"/><line class="cls-34" x1="86.31" y1="1661.43" x2="1365.54" y2="1661.43"/><polyline class="cls-33" points="1366.54 1702.71 1366.79 1702.71 1366.54 1702.71"/><line class="cls-34" x1="1364.54" y1="1702.71" x2="85.31" y2="1702.71"/><polyline class="cls-33" points="84.31 1702.71 84.06 1702.71 84.31 1702.71"/><line class="cls-34" x1="86.31" y1="1702.71" x2="1365.54" y2="1702.71"/><polyline class="cls-33" points="1366.54 1743.98 1366.79 1743.98 1366.54 1743.98"/><line class="cls-34" x1="1364.54" y1="1743.98" x2="85.31" y2="1743.98"/><polyline class="cls-33" points="84.31 1743.98 84.06 1743.98 84.31 1743.98"/><line class="cls-34" x1="86.31" y1="1743.98" x2="1365.54" y2="1743.98"/><polyline class="cls-33" points="1366.54 1785.26 1366.79 1785.26 1366.54 1785.26"/><line class="cls-34" x1="1364.54" y1="1785.26" x2="85.31" y2="1785.26"/><polyline class="cls-33" points="84.31 1785.26 84.06 1785.26 84.31 1785.26"/><line class="cls-34" x1="86.31" y1="1785.26" x2="1365.54" y2="1785.26"/><polyline class="cls-33" points="1366.54 1826.53 1366.79 1826.53 1366.54 1826.53"/><line class="cls-34" x1="1364.54" y1="1826.53" x2="85.31" y2="1826.53"/><polyline class="cls-33" points="84.31 1826.53 84.06 1826.53 84.31 1826.53"/><line class="cls-34" x1="86.31" y1="1826.53" x2="1365.54" y2="1826.53"/><polyline class="cls-26" points="849.68 1311.71 850.18 1311.71 849.68 1311.71"/><line class="cls-27" x1="847.69" y1="1311.71" x2="90.93" y2="1311.71"/><polyline class="cls-26" points="89.93 1311.71 89.43 1311.71 89.93 1311.71"/><line class="cls-27" x1="91.93" y1="1311.71" x2="848.68" y2="1311.71"/><polyline class="cls-26" points="849.68 1091.39 850.18 1091.39 849.68 1091.39"/><line class="cls-28" x1="847.68" y1="1091.39" x2="168.06" y2="1091.39"/><polyline class="cls-26" points="167.06 1091.39 166.56 1091.39 167.06 1091.39"/><line class="cls-28" x1="169.06" y1="1091.39" x2="848.68" y2="1091.39"/><polyline class="cls-35" points="1366.29 254.17 1366.79 254.17 1366.29 254.17"/><line class="cls-36" x1="1364.3" y1="254.17" x2="934.11" y2="254.17"/><polyline class="cls-35" points="933.11 254.17 932.61 254.17 933.11 254.17"/><line class="cls-36" x1="935.11" y1="254.17" x2="1365.29" y2="254.17"/><polyline class="cls-35" points="1366.29 298.23 1366.79 298.23 1366.29 298.23"/><line class="cls-36" x1="1364.3" y1="298.23" x2="934.11" y2="298.23"/><polyline class="cls-35" points="933.11 298.23 932.61 298.23 933.11 298.23"/><line class="cls-36" x1="935.11" y1="298.23" x2="1365.29" y2="298.23"/><polyline class="cls-35" points="1366.29 342.3 1366.79 342.3 1366.29 342.3"/><line class="cls-36" x1="1364.3" y1="342.29" x2="934.11" y2="342.29"/><polyline class="cls-35" points="933.11 342.3 932.61 342.3 933.11 342.3"/><line class="cls-36" x1="935.11" y1="342.29" x2="1365.29" y2="342.29"/><polyline class="cls-35" points="1366.29 386.36 1366.79 386.36 1366.29 386.36"/><line class="cls-36" x1="1364.3" y1="386.36" x2="934.11" y2="386.36"/><polyline class="cls-35" points="933.11 386.36 932.61 386.36 933.11 386.36"/><line class="cls-36" x1="935.11" y1="386.36" x2="1365.29" y2="386.36"/><polyline class="cls-35" points="1366.29 474.49 1366.79 474.49 1366.29 474.49"/><line class="cls-36" x1="1364.3" y1="474.49" x2="934.11" y2="474.49"/><polyline class="cls-35" points="933.11 474.49 932.61 474.49 933.11 474.49"/><line class="cls-36" x1="935.11" y1="474.49" x2="1365.29" y2="474.49"/><polyline class="cls-35" points="1366.29 518.55 1366.79 518.55 1366.29 518.55"/><line class="cls-36" x1="1364.3" y1="518.55" x2="934.11" y2="518.55"/><polyline class="cls-35" points="933.11 518.55 932.61 518.55 933.11 518.55"/><line class="cls-36" x1="935.11" y1="518.55" x2="1365.29" y2="518.55"/><polyline class="cls-35" points="1366.29 562.62 1366.79 562.62 1366.29 562.62"/><line class="cls-36" x1="1364.3" y1="562.62" x2="934.11" y2="562.62"/><polyline class="cls-35" points="933.11 562.62 932.61 562.62 933.11 562.62"/><line class="cls-36" x1="935.11" y1="562.62" x2="1365.29" y2="562.62"/><polyline class="cls-35" points="1366.29 606.68 1366.79 606.68 1366.29 606.68"/><line class="cls-36" x1="1364.3" y1="606.68" x2="934.11" y2="606.68"/><polyline class="cls-35" points="933.11 606.68 932.61 606.68 933.11 606.68"/><line class="cls-36" x1="935.11" y1="606.68" x2="1365.29" y2="606.68"/><polyline class="cls-35" points="1366.29 430.42 1366.79 430.42 1366.29 430.42"/><line class="cls-36" x1="1364.3" y1="430.42" x2="934.11" y2="430.42"/><polyline class="cls-35" points="933.11 430.42 932.61 430.42 933.11 430.42"/><line class="cls-36" x1="935.11" y1="430.42" x2="1365.29" y2="430.42"/><polyline class="cls-35" points="1366.29 210.1 1366.79 210.1 1366.29 210.1"/><line class="cls-36" x1="1364.3" y1="210.1" x2="934.11" y2="210.1"/><polyline class="cls-35" points="933.11 210.1 932.61 210.1 933.11 210.1"/><line class="cls-36" x1="935.11" y1="210.1" x2="1365.29" y2="210.1"/><polyline class="cls-35" points="1366.29 694.81 1366.79 694.81 1366.29 694.81"/><line class="cls-36" x1="1364.3" y1="694.81" x2="934.11" y2="694.81"/><polyline class="cls-35" points="933.11 694.81 932.61 694.81 933.11 694.81"/><line class="cls-36" x1="935.11" y1="694.81" x2="1365.29" y2="694.81"/><polyline class="cls-35" points="1366.29 738.87 1366.79 738.87 1366.29 738.87"/><line class="cls-36" x1="1364.3" y1="738.87" x2="934.11" y2="738.87"/><polyline class="cls-35" points="933.11 738.87 932.61 738.87 933.11 738.87"/><line class="cls-36" x1="935.11" y1="738.87" x2="1365.29" y2="738.87"/><polyline class="cls-35" points="1366.29 782.94 1366.79 782.94 1366.29 782.94"/><line class="cls-36" x1="1364.3" y1="782.94" x2="934.11" y2="782.94"/><polyline class="cls-35" points="933.11 782.94 932.61 782.94 933.11 782.94"/><line class="cls-36" x1="935.11" y1="782.94" x2="1365.29" y2="782.94"/><polyline class="cls-35" points="1366.29 827 1366.79 827 1366.29 827"/><line class="cls-36" x1="1364.3" y1="827" x2="934.11" y2="827"/><polyline class="cls-35" points="933.11 827 932.61 827 933.11 827"/><line class="cls-36" x1="935.11" y1="827" x2="1365.29" y2="827"/><polyline class="cls-35" points="1366.29 915.13 1366.79 915.13 1366.29 915.13"/><line class="cls-36" x1="1364.3" y1="915.13" x2="934.11" y2="915.13"/><polyline class="cls-35" points="933.11 915.13 932.61 915.13 933.11 915.13"/><line class="cls-36" x1="935.11" y1="915.13" x2="1365.29" y2="915.13"/><polyline class="cls-35" points="1366.29 959.19 1366.79 959.19 1366.29 959.19"/><line class="cls-36" x1="1364.3" y1="959.19" x2="934.11" y2="959.19"/><polyline class="cls-35" points="933.11 959.19 932.61 959.19 933.11 959.19"/><line class="cls-36" x1="935.11" y1="959.19" x2="1365.29" y2="959.19"/><polyline class="cls-35" points="1366.29 1003.26 1366.79 1003.26 1366.29 1003.26"/><line class="cls-36" x1="1364.3" y1="1003.26" x2="934.11" y2="1003.26"/><polyline class="cls-35" points="933.11 1003.26 932.61 1003.26 933.11 1003.26"/><line class="cls-36" x1="935.11" y1="1003.26" x2="1365.29" y2="1003.26"/><polyline class="cls-35" points="1366.29 1047.32 1366.79 1047.32 1366.29 1047.32"/><line class="cls-36" x1="1364.3" y1="1047.32" x2="934.11" y2="1047.32"/><polyline class="cls-35" points="933.11 1047.32 932.61 1047.32 933.11 1047.32"/><line class="cls-36" x1="935.11" y1="1047.32" x2="1365.29" y2="1047.32"/><polyline class="cls-35" points="1366.29 871.07 1366.79 871.07 1366.29 871.07"/><line class="cls-36" x1="1364.3" y1="871.06" x2="934.11" y2="871.06"/><polyline class="cls-35" points="933.11 871.07 932.61 871.07 933.11 871.07"/><line class="cls-36" x1="935.11" y1="871.06" x2="1365.29" y2="871.06"/><polyline class="cls-35" points="1366.29 650.74 1366.79 650.74 1366.29 650.74"/><line class="cls-36" x1="1364.3" y1="650.74" x2="934.11" y2="650.74"/><polyline class="cls-35" points="933.11 650.74 932.61 650.74 933.11 650.74"/><line class="cls-36" x1="935.11" y1="650.74" x2="1365.29" y2="650.74"/><polyline class="cls-35" points="1366.29 1135.45 1366.79 1135.45 1366.29 1135.45"/><line class="cls-36" x1="1364.3" y1="1135.45" x2="934.11" y2="1135.45"/><polyline class="cls-35" points="933.11 1135.45 932.61 1135.45 933.11 1135.45"/><line class="cls-36" x1="935.11" y1="1135.45" x2="1365.29" y2="1135.45"/><polyline class="cls-35" points="1366.29 1179.51 1366.79 1179.51 1366.29 1179.51"/><line class="cls-36" x1="1364.3" y1="1179.51" x2="934.11" y2="1179.51"/><polyline class="cls-35" points="933.11 1179.51 932.61 1179.51 933.11 1179.51"/><line class="cls-36" x1="935.11" y1="1179.51" x2="1365.29" y2="1179.51"/><polyline class="cls-35" points="1366.29 1223.58 1366.79 1223.58 1366.29 1223.58"/><line class="cls-36" x1="1364.3" y1="1223.58" x2="934.11" y2="1223.58"/><polyline class="cls-35" points="933.11 1223.58 932.61 1223.58 933.11 1223.58"/><line class="cls-36" x1="935.11" y1="1223.58" x2="1365.29" y2="1223.58"/><polyline class="cls-35" points="1366.29 1267.64 1366.79 1267.64 1366.29 1267.64"/><line class="cls-36" x1="1364.3" y1="1267.64" x2="934.11" y2="1267.64"/><polyline class="cls-35" points="933.11 1267.64 932.61 1267.64 933.11 1267.64"/><line class="cls-36" x1="935.11" y1="1267.64" x2="1365.29" y2="1267.64"/><polyline class="cls-35" points="1366.29 1355.77 1366.79 1355.77 1366.29 1355.77"/><line class="cls-36" x1="1364.3" y1="1355.77" x2="934.11" y2="1355.77"/><polyline class="cls-35" points="933.11 1355.77 932.61 1355.77 933.11 1355.77"/><line class="cls-36" x1="935.11" y1="1355.77" x2="1365.29" y2="1355.77"/><polyline class="cls-35" points="1366.29 1399.84 1366.79 1399.84 1366.29 1399.84"/><line class="cls-36" x1="1364.3" y1="1399.83" x2="934.11" y2="1399.83"/><polyline class="cls-35" points="933.11 1399.84 932.61 1399.84 933.11 1399.84"/><line class="cls-36" x1="935.11" y1="1399.83" x2="1365.29" y2="1399.83"/><polyline class="cls-35" points="1366.29 1443.9 1366.79 1443.9 1366.29 1443.9"/><line class="cls-36" x1="1364.3" y1="1443.9" x2="934.11" y2="1443.9"/><polyline class="cls-35" points="933.11 1443.9 932.61 1443.9 933.11 1443.9"/><line class="cls-36" x1="935.11" y1="1443.9" x2="1365.29" y2="1443.9"/><polyline class="cls-35" points="1366.29 1487.96 1366.79 1487.96 1366.29 1487.96"/><line class="cls-36" x1="1364.3" y1="1487.96" x2="934.11" y2="1487.96"/><polyline class="cls-35" points="933.11 1487.96 932.61 1487.96 933.11 1487.96"/><line class="cls-36" x1="935.11" y1="1487.96" x2="1365.29" y2="1487.96"/><polyline class="cls-35" points="1366.29 1311.71 1366.79 1311.71 1366.29 1311.71"/><line class="cls-36" x1="1364.3" y1="1311.71" x2="934.11" y2="1311.71"/><polyline class="cls-35" points="933.11 1311.71 932.61 1311.71 933.11 1311.71"/><line class="cls-36" x1="935.11" y1="1311.71" x2="1365.29" y2="1311.71"/><polyline class="cls-35" points="1366.29 1091.39 1366.79 1091.39 1366.29 1091.39"/><line class="cls-36" x1="1364.3" y1="1091.39" x2="934.11" y2="1091.39"/><polyline class="cls-35" points="933.11 1091.39 932.61 1091.39 933.11 1091.39"/><line class="cls-36" x1="935.11" y1="1091.39" x2="1365.29" y2="1091.39"/><text class="cls-37" transform="translate(89.43 144.08)">SCHEDULE</text><text class="cls-38" transform="translate(89.43 1590.75)">FUTURE G<tspan class="cls-39" x="95.44" y="0">O</tspan><tspan x="112.08" y="0">ALS /</tspan><tspan class="cls-40" x="159.96" y="0"> </tspan><tspan class="cls-41" x="164.48" y="0">T</tspan><tspan x="175.28" y="0">O-DOS / FOL</tspan><tspan class="cls-42" x="297.94" y="0">L</tspan><tspan x="307.54" y="0">O</tspan><tspan class="cls-43" x="324.54" y="0">W</tspan><tspan x="343.74" y="0">-UP</tspan></text><text class="cls-38" transform="translate(899.22 136.08)">G<tspan class="cls-39" x="15.58" y="0">O</tspan><tspan x="32.22" y="0">ALS &amp;</tspan><tspan class="cls-44" x="86.78" y="0"> </tspan><tspan class="cls-41" x="91.3" y="0">T</tspan><tspan x="102.1" y="0">O-DOS</tspan></text><text class="cls-45" transform="translate(89.43 52.19)"><tspan class="cls-44">D</tspan><tspan class="cls-46" x="14.66" y="0">A</tspan><tspan x="27.46" y="0">TE</tspan></text><path class="cls-2" d="M946.81,85.13a26.74,26.74,0,1,1,26.74-26.74A26.76,26.76,0,0,1,946.81,85.13Z"/><path class="cls-3" d="M946.81,32.15a26.24,26.24,0,1,1-26.24,26.24,26.27,26.27,0,0,1,26.24-26.24m0-1a27.24,27.24,0,1,0,27.24,27.24,27.24,27.24,0,0,0-27.24-27.24Z"/><path class="cls-4" d="M946.81,31.15a27.24,27.24,0,1,1-27.24,27.24,27.25,27.25,0,0,1,27.24-27.24m0-2a29.24,29.24,0,1,0,29.24,29.24,29.28,29.28,0,0,0-29.24-29.24Z"/><path class="cls-47" d="M946.83,63.5h0l5.22-12.89h2.42V66.18H952.9V52.65h0l-5.63,13.53h-.84l-5.63-13.53h0V66.18h-1.58V50.61h2.42Z"/><path class="cls-2" d="M1008.88,85.13a26.74,26.74,0,1,1,26.73-26.74A26.76,26.76,0,0,1,1008.88,85.13Z"/><path class="cls-3" d="M1008.87,32.15a26.24,26.24,0,1,1-26.23,26.24,26.27,26.27,0,0,1,26.23-26.24m0-1a27.24,27.24,0,1,0,27.24,27.24,27.24,27.24,0,0,0-27.24-27.24Z"/><path class="cls-4" d="M1008.87,31.15a27.24,27.24,0,1,1-27.23,27.24,27.24,27.24,0,0,1,27.23-27.24m0-2a29.24,29.24,0,1,0,29.24,29.24,29.27,29.27,0,0,0-29.24-29.24Z"/><path class="cls-47" d="M1009.67,66.18h-1.59V52h-5.21v-1.4h12V52h-5.21Z"/><path class="cls-2" d="M1070.94,85.13a26.74,26.74,0,1,1,26.74-26.74A26.77,26.77,0,0,1,1070.94,85.13Z"/><path class="cls-3" d="M1070.94,32.15a26.24,26.24,0,1,1-26.24,26.24,26.27,26.27,0,0,1,26.24-26.24m0-1a27.24,27.24,0,1,0,27.24,27.24,27.25,27.25,0,0,0-27.24-27.24Z"/><path class="cls-4" d="M1070.94,31.15a27.24,27.24,0,1,1-27.24,27.24,27.25,27.25,0,0,1,27.24-27.24m0-2a29.24,29.24,0,1,0,29.24,29.24,29.28,29.28,0,0,0-29.24-29.24Z"/><path class="cls-47" d="M1066.08,64h0l3.9-13.39h1.89L1075.8,64h0l3.8-13.39h1.67l-4.59,15.57h-1.85L1071,52.81h0L1067,66.18h-1.85l-4.59-15.57h1.67Z"/><path class="cls-2" d="M1133,85.13a26.74,26.74,0,1,1,26.74-26.74A26.76,26.76,0,0,1,1133,85.13Z"/><path class="cls-3" d="M1133,32.15a26.24,26.24,0,1,1-26.24,26.24A26.27,26.27,0,0,1,1133,32.15m0-1a27.24,27.24,0,1,0,27.24,27.24A27.24,27.24,0,0,0,1133,31.15Z"/><path class="cls-4" d="M1133,31.15a27.24,27.24,0,1,1-27.24,27.24A27.25,27.25,0,0,1,1133,31.15m0-2a29.24,29.24,0,1,0,29.24,29.24A29.27,29.27,0,0,0,1133,29.15Z"/><path class="cls-47" d="M1133.8,66.18h-1.59V52H1127v-1.4h12V52h-5.21Z"/><path class="cls-2" d="M1195.07,85.13a26.74,26.74,0,1,1,26.74-26.74A26.77,26.77,0,0,1,1195.07,85.13Z"/><path class="cls-3" d="M1195.07,32.15a26.24,26.24,0,1,1-26.24,26.24,26.27,26.27,0,0,1,26.24-26.24m0-1a27.24,27.24,0,1,0,27.24,27.24,27.25,27.25,0,0,0-27.24-27.24Z"/><path class="cls-4" d="M1195.07,31.15a27.24,27.24,0,1,1-27.24,27.24,27.24,27.24,0,0,1,27.24-27.24m0-2a29.24,29.24,0,1,0,29.24,29.24,29.28,29.28,0,0,0-29.24-29.24Z"/><path class="cls-47" d="M1192,66.18h-1.58V50.61h9.39V52H1192V57.4h7.26v1.41H1192Z"/><path class="cls-2" d="M1257.14,85.13a26.74,26.74,0,1,1,26.74-26.74A26.76,26.76,0,0,1,1257.14,85.13Z"/><path class="cls-3" d="M1257.14,32.15a26.24,26.24,0,1,1-26.24,26.24,26.27,26.27,0,0,1,26.24-26.24m0-1a27.24,27.24,0,1,0,27.24,27.24,27.24,27.24,0,0,0-27.24-27.24Z"/><path class="cls-4" d="M1257.14,31.15a27.24,27.24,0,1,1-27.24,27.24,27.25,27.25,0,0,1,27.24-27.24m0-2a29.24,29.24,0,1,0,29.24,29.24,29.28,29.28,0,0,0-29.24-29.24Z"/><path class="cls-47" d="M1260.67,53.11a3.84,3.84,0,0,0-1.3-1.13,4.23,4.23,0,0,0-3.08-.25,3.42,3.42,0,0,0-1.08.54,2.76,2.76,0,0,0-.78.91,2.8,2.8,0,0,0-.29,1.3,2.38,2.38,0,0,0,.28,1.23,2.58,2.58,0,0,0,.76.82,4.36,4.36,0,0,0,1.07.57l1.26.44c.55.17,1.09.36,1.64.57a5.69,5.69,0,0,1,1.48.8,3.81,3.81,0,0,1,1.07,1.25,4,4,0,0,1,.42,1.93,4.32,4.32,0,0,1-.44,2,4.19,4.19,0,0,1-1.16,1.4,4.57,4.57,0,0,1-1.62.81,6.45,6.45,0,0,1-1.84.27,6.76,6.76,0,0,1-1.41-.15,6.14,6.14,0,0,1-1.34-.42,5.85,5.85,0,0,1-1.19-.73,5.11,5.11,0,0,1-1-1l1.36-1a4.2,4.2,0,0,0,1.42,1.39,4,4,0,0,0,2.14.56,4.28,4.28,0,0,0,1.21-.18,3.46,3.46,0,0,0,1.11-.58,3,3,0,0,0,.82-.94,2.92,2.92,0,0,0,0-2.66,2.81,2.81,0,0,0-.85-.9,4.73,4.73,0,0,0-1.21-.61l-1.43-.48c-.51-.17-1-.35-1.52-.55a5.5,5.5,0,0,1-1.34-.81,3.88,3.88,0,0,1-1-1.22,4.49,4.49,0,0,1,.09-3.72,4.13,4.13,0,0,1,1.18-1.34,4.89,4.89,0,0,1,1.61-.77,6.5,6.5,0,0,1,1.73-.24,6.06,6.06,0,0,1,2.71.56,4.59,4.59,0,0,1,1.69,1.33Z"/><path class="cls-2" d="M1319.21,85.13a26.74,26.74,0,1,1,26.73-26.74A26.76,26.76,0,0,1,1319.21,85.13Z"/><path class="cls-3" d="M1319.2,32.15A26.24,26.24,0,1,1,1293,58.39a26.27,26.27,0,0,1,26.23-26.24m0-1a27.24,27.24,0,1,0,27.24,27.24,27.24,27.24,0,0,0-27.24-27.24Z"/><path class="cls-4" d="M1319.2,31.15A27.24,27.24,0,1,1,1292,58.39a27.24,27.24,0,0,1,27.23-27.24m0-2a29.24,29.24,0,1,0,29.24,29.24,29.27,29.27,0,0,0-29.24-29.24Z"/><path class="cls-47" d="M1322.74,53.11a3.84,3.84,0,0,0-1.3-1.13,4.06,4.06,0,0,0-1.92-.43,4,4,0,0,0-1.16.18,3.22,3.22,0,0,0-1.08.54,2.76,2.76,0,0,0-.78.91,2.68,2.68,0,0,0-.3,1.3,2.38,2.38,0,0,0,.29,1.23,2.67,2.67,0,0,0,.75.82,4.62,4.62,0,0,0,1.08.57l1.26.44c.54.17,1.09.36,1.63.57a5.75,5.75,0,0,1,1.49.8,4.06,4.06,0,0,1,1.07,1.25,4,4,0,0,1,.42,1.93,4.18,4.18,0,0,1-1.6,3.41,4.7,4.7,0,0,1-1.63.81,6.39,6.39,0,0,1-1.83.27,6.76,6.76,0,0,1-1.41-.15,6,6,0,0,1-1.34-.42,5.59,5.59,0,0,1-1.19-.73,5.16,5.16,0,0,1-1-1l1.37-1a4.17,4.17,0,0,0,1.41,1.39,4,4,0,0,0,2.15.56,4.28,4.28,0,0,0,1.21-.18,3.46,3.46,0,0,0,1.11-.58,3.06,3.06,0,0,0,.81-.94,2.92,2.92,0,0,0,0-2.66,2.78,2.78,0,0,0-.84-.9,4.9,4.9,0,0,0-1.21-.61l-1.43-.48c-.52-.17-1-.35-1.52-.55a5.15,5.15,0,0,1-1.34-.81,3.62,3.62,0,0,1-1-1.22,4.06,4.06,0,0,1,1.27-5.06,4.84,4.84,0,0,1,1.6-.77,6.63,6.63,0,0,1,1.74-.24,6.06,6.06,0,0,1,2.71.56A4.68,4.68,0,0,1,1324,52.1Z"/><circle class="cls-48" cx="913.22" cy="189.1" r="10.39"/><circle class="cls-48" cx="913.22" cy="233.17" r="10.39"/><circle class="cls-48" cx="913.22" cy="277.24" r="10.39"/><circle class="cls-48" cx="913.22" cy="321.31" r="10.39"/><circle class="cls-48" cx="913.22" cy="365.38" r="10.39" transform="translate(-70.31 377.29) rotate(-22.5)"/><circle class="cls-48" cx="913.22" cy="409.45" r="10.39"/><circle class="cls-48" cx="913.22" cy="453.52" r="10.39" transform="translate(319.28 1282.3) rotate(-80.78)"/><circle class="cls-48" cx="913.22" cy="497.59" r="10.39"/><circle class="cls-48" cx="913.22" cy="585.73" r="10.39"/><circle class="cls-48" cx="913.22" cy="541.66" r="10.39"/><circle class="cls-48" cx="913.22" cy="629.8" r="10.39"/><circle class="cls-48" cx="913.22" cy="673.87" r="10.39"/><circle class="cls-48" cx="913.22" cy="717.94" r="10.39"/><circle class="cls-48" cx="913.22" cy="762.01" r="10.39"/><circle class="cls-48" cx="913.22" cy="806.08" r="10.39"/><circle class="cls-48" cx="913.22" cy="850.15" r="10.39"/><circle class="cls-48" cx="913.22" cy="894.22" r="10.39"/><circle class="cls-48" cx="913.22" cy="938.29" r="10.39"/><circle class="cls-48" cx="913.22" cy="1026.43" r="10.39" transform="translate(-246.24 1763.44) rotate(-80.78)"/><circle class="cls-48" cx="913.22" cy="982.36" r="10.39"/><circle class="cls-48" cx="913.22" cy="1070.5" r="10.39" transform="translate(-425.27 1504.54) rotate(-67.5)"/><circle class="cls-48" cx="913.22" cy="1114.57" r="10.39" transform="translate(-465.98 1531.75) rotate(-67.5)"/><circle class="cls-48" cx="913.22" cy="1158.64" r="10.39" transform="translate(-506.7 1558.96) rotate(-67.5)"/><circle class="cls-48" cx="913.22" cy="1202.71" r="10.39" transform="translate(-547.41 1586.16) rotate(-67.5)"/><circle class="cls-48" cx="913.22" cy="1246.78" r="10.39" transform="translate(-588.13 1613.37) rotate(-67.5)"/><circle class="cls-48" cx="913.22" cy="1290.85" r="10.39" transform="translate(-628.85 1640.57) rotate(-67.5)"/><circle class="cls-48" cx="913.22" cy="1334.92" r="10.39"/><circle class="cls-48" cx="913.22" cy="1378.99" r="10.39" transform="translate(-710.28 1694.98) rotate(-67.5)"/><circle class="cls-48" cx="913.22" cy="1467.13" r="10.39" transform="translate(-791.71 1749.39) rotate(-67.5)"/><circle class="cls-48" cx="913.22" cy="1423.06" r="10.39" transform="translate(-750.99 1722.19) rotate(-67.5)"/></g></svg>