<svg xmlns="http://www.w3.org/2000/svg" viewBox="0 0 1404 1872"><defs><style>.cls-1,.cls-10,.cls-11,.cls-12,.cls-15,.cls-16,.cls-2,.cls-3,.cls-4,.cls-5,.cls-6,.cls-7,.cls-8,.cls-9{fill:none;stroke-miterlimit:10;}.cls-1,.cls-10,.cls-11,.cls-12,.cls-2,.cls-3,.cls-4,.cls-5,.cls-6,.cls-7,.cls-8,.cls-9{stroke:#414042;}.cls-1{stroke-dasharray:1 19.05;}.cls-10,.cls-3,.cls-4,.cls-5,.cls-9{stroke-width:1.5px;}.cls-3{stroke-dasharray:1.5 8.52;}.cls-4{stroke-dasharray:1.5 8.52 1.5 8.52;}.cls-11,.cls-12,.cls-6,.cls-7,.cls-8{stroke-width:2px;}.cls-6{stroke-dasharray:1 8.02;}.cls-7{stroke-dasharray:2.01 9.03 1 8.02;}.cls-9{stroke-dasharray:1.51 8.53;}.cls-10{stroke-dasharray:1.51 8.53 1.51 8.53;}.cls-11{stroke-dasharray:1 8.03;}.cls-12{stroke-dasharray:2.01 9.04 1 8.03;}.cls-13{fill:#d1d3d4;}.cls-14{fill:#a7a9ac;}.cls-15{stroke:#231f20;}.cls-16{stroke:#808285;}.cls-17{fill:#fff;}.cls-18,.cls-22,.cls-24{fill:#231f20;}.cls-19,.cls-22{font-size:20px;}.cls-19,.cls-27{fill:#414042;}.cls-19,.cls-22,.cls-24{font-family:AvenirNext-Regular, Avenir Next;}.cls-20{letter-spacing:-0.02em;}.cls-21{letter-spacing:-0.06em;}.cls-23{letter-spacing:-0.06em;}.cls-24{font-size:16px;}.cls-25{letter-spacing:-0.06em;}.cls-26{letter-spacing:-0.02em;}.cls-28{fill:#808285;}</style></defs><g id="Grid_Horizontal" data-name="Grid Horizontal"><line class="cls-1" x1="1385.45" y1="47.15" x2="11.03" y2="47.15"/><polyline class="cls-2" points="1.5 47.15 1 47.15 1.5 47.15"/><line class="cls-1" x1="20.55" y1="47.15" x2="1394.97" y2="47.15"/><line class="cls-1" x1="1385.45" y1="67.23" x2="11.03" y2="67.23"/><polyline class="cls-2" points="1.5 67.23 1 67.23 1.5 67.23"/><line class="cls-1" x1="20.55" y1="67.23" x2="1394.97" y2="67.23"/><line class="cls-3" x1="1395.73" y1="87.3" x2="1389.96" y2="87.3"/><line class="cls-4" x1="1385.7" y1="87.3" x2="6.01" y2="87.3"/><polyline class="cls-5" points="1.75 87.3 1 87.3 1.75 87.3"/><line class="cls-3" x1="10.27" y1="87.3" x2="16.04" y2="87.3"/><line class="cls-4" x1="20.3" y1="87.3" x2="1399.99" y2="87.3"/><line class="cls-1" x1="1385.45" y1="107.38" x2="11.03" y2="107.38"/><polyline class="cls-2" points="1.5 107.38 1 107.38 1.5 107.38"/><line class="cls-1" x1="20.55" y1="107.38" x2="1394.97" y2="107.38"/><line class="cls-1" x1="1385.45" y1="127.45" x2="11.03" y2="127.45"/><polyline class="cls-2" points="1.5 127.45 1 127.45 1.5 127.45"/><line class="cls-1" x1="20.55" y1="127.45" x2="1394.97" y2="127.45"/><line class="cls-1" x1="1385.45" y1="147.53" x2="11.03" y2="147.53"/><polyline class="cls-2" points="1.5 147.53 1 147.53 1.5 147.53"/><line class="cls-1" x1="20.55" y1="147.53" x2="1394.97" y2="147.53"/><line class="cls-1" x1="1385.45" y1="167.6" x2="11.03" y2="167.6"/><polyline class="cls-2" points="1.5 167.6 1 167.6 1.5 167.6"/><line class="cls-1" x1="20.55" y1="167.6" x2="1394.97" y2="167.6"/><line class="cls-6" x1="1394.97" y1="187.67" x2="1389.96" y2="187.67"/><line class="cls-7" x1="1385.95" y1="187.67" x2="6.01" y2="187.67"/><polyline class="cls-8" points="2 187.67 1 187.67 2 187.67"/><line class="cls-6" x1="11.03" y1="187.67" x2="16.04" y2="187.67"/><line class="cls-7" x1="20.05" y1="187.67" x2="1399.99" y2="187.67"/><line class="cls-1" x1="1385.45" y1="207.75" x2="11.03" y2="207.75"/><polyline class="cls-2" points="1.5 207.75 1 207.75 1.5 207.75"/><line class="cls-1" x1="20.55" y1="207.75" x2="1394.97" y2="207.75"/><line class="cls-1" x1="1385.45" y1="227.82" x2="11.03" y2="227.82"/><polyline class="cls-2" points="1.5 227.82 1 227.82 1.5 227.82"/><line class="cls-1" x1="20.55" y1="227.82" x2="1394.97" y2="227.82"/><line class="cls-1" x1="1385.45" y1="247.9" x2="11.03" y2="247.9"/><polyline class="cls-2" points="1.5 247.9 1 247.9 1.5 247.9"/><line class="cls-1" x1="20.55" y1="247.9" x2="1394.97" y2="247.9"/><line class="cls-1" x1="1385.45" y1="267.97" x2="11.03" y2="267.97"/><polyline class="cls-2" points="1.5 267.97 1 267.97 1.5 267.97"/><line class="cls-1" x1="20.55" y1="267.97" x2="1394.97" y2="267.97"/><line class="cls-3" x1="1395.73" y1="288.05" x2="1389.96" y2="288.05"/><line class="cls-4" x1="1385.7" y1="288.05" x2="6.01" y2="288.05"/><polyline class="cls-5" points="1.75 288.05 1 288.05 1.75 288.05"/><line class="cls-3" x1="10.27" y1="288.05" x2="16.04" y2="288.05"/><line class="cls-4" x1="20.3" y1="288.05" x2="1399.99" y2="288.05"/><line class="cls-1" x1="1385.45" y1="308.12" x2="11.03" y2="308.12"/><polyline class="cls-2" points="1.5 308.12 1 308.12 1.5 308.12"/><line class="cls-1" x1="20.55" y1="308.12" x2="1394.97" y2="308.12"/><line class="cls-1" x1="1385.45" y1="328.19" x2="11.03" y2="328.19"/><polyline class="cls-2" points="1.5 328.19 1 328.19 1.5 328.19"/><line class="cls-1" x1="20.55" y1="328.19" x2="1394.97" y2="328.19"/><line class="cls-1" x1="1385.45" y1="348.27" x2="11.03" y2="348.27"/><polyline class="cls-2" points="1.5 348.27 1 348.27 1.5 348.27"/><line class="cls-1" x1="20.55" y1="348.27" x2="1394.97" y2="348.27"/><line class="cls-1" x1="1385.45" y1="368.34" x2="11.03" y2="368.34"/><polyline class="cls-2" points="1.5 368.34 1 368.34 1.5 368.34"/><line class="cls-1" x1="20.55" y1="368.34" x2="1394.97" y2="368.34"/><line class="cls-6" x1="1394.97" y1="388.42" x2="1389.96" y2="388.42"/><line class="cls-7" x1="1385.95" y1="388.42" x2="6.01" y2="388.42"/><polyline class="cls-8" points="2 388.42 1 388.42 2 388.42"/><line class="cls-6" x1="11.03" y1="388.42" x2="16.04" y2="388.42"/><line class="cls-7" x1="20.05" y1="388.42" x2="1399.99" y2="388.42"/><line class="cls-1" x1="1385.45" y1="408.49" x2="11.03" y2="408.49"/><polyline class="cls-2" points="1.5 408.49 1 408.49 1.5 408.49"/><line class="cls-1" x1="20.55" y1="408.49" x2="1394.97" y2="408.49"/><line class="cls-1" x1="1385.45" y1="428.57" x2="11.03" y2="428.57"/><polyline class="cls-2" points="1.5 428.57 1 428.57 1.5 428.57"/><line class="cls-1" x1="20.55" y1="428.57" x2="1394.97" y2="428.57"/><line class="cls-1" x1="1385.45" y1="448.64" x2="11.03" y2="448.64"/><polyline class="cls-2" points="1.5 448.64 1 448.64 1.5 448.64"/><line class="cls-1" x1="20.55" y1="448.64" x2="1394.97" y2="448.64"/><line class="cls-1" x1="1385.45" y1="468.71" x2="11.03" y2="468.71"/><polyline class="cls-2" points="1.5 468.71 1 468.71 1.5 468.71"/><line class="cls-1" x1="20.55" y1="468.71" x2="1394.97" y2="468.71"/><line class="cls-3" x1="1395.73" y1="488.79" x2="1389.96" y2="488.79"/><line class="cls-4" x1="1385.7" y1="488.79" x2="6.01" y2="488.79"/><polyline class="cls-5" points="1.75 488.79 1 488.79 1.75 488.79"/><line class="cls-3" x1="10.27" y1="488.79" x2="16.04" y2="488.79"/><line class="cls-4" x1="20.3" y1="488.79" x2="1399.99" y2="488.79"/><line class="cls-1" x1="1385.45" y1="508.86" x2="11.03" y2="508.86"/><polyline class="cls-2" points="1.5 508.86 1 508.86 1.5 508.86"/><line class="cls-1" x1="20.55" y1="508.86" x2="1394.97" y2="508.86"/><line class="cls-1" x1="1385.45" y1="528.94" x2="11.03" y2="528.94"/><polyline class="cls-2" points="1.5 528.94 1 528.94 1.5 528.94"/><line class="cls-1" x1="20.55" y1="528.94" x2="1394.97" y2="528.94"/><line class="cls-1" x1="1385.45" y1="549.01" x2="11.03" y2="549.01"/><polyline class="cls-2" points="1.5 549.01 1 549.01 1.5 549.01"/><line class="cls-1" x1="20.55" y1="549.01" x2="1394.97" y2="549.01"/><line class="cls-1" x1="1385.45" y1="569.09" x2="11.03" y2="569.09"/><polyline class="cls-2" points="1.5 569.09 1 569.09 1.5 569.09"/><line class="cls-1" x1="20.55" y1="569.09" x2="1394.97" y2="569.09"/><line class="cls-6" x1="1394.97" y1="589.16" x2="1389.96" y2="589.16"/><line class="cls-7" x1="1385.95" y1="589.16" x2="6.01" y2="589.16"/><polyline class="cls-8" points="2 589.16 1 589.16 2 589.16"/><line class="cls-6" x1="11.03" y1="589.16" x2="16.04" y2="589.16"/><line class="cls-7" x1="20.05" y1="589.16" x2="1399.99" y2="589.16"/><line class="cls-1" x1="1385.45" y1="609.24" x2="11.03" y2="609.24"/><polyline class="cls-2" points="1.5 609.24 1 609.24 1.5 609.24"/><line class="cls-1" x1="20.55" y1="609.24" x2="1394.97" y2="609.24"/><line class="cls-1" x1="1385.45" y1="629.31" x2="11.03" y2="629.31"/><polyline class="cls-2" points="1.5 629.31 1 629.31 1.5 629.31"/><line class="cls-1" x1="20.55" y1="629.31" x2="1394.97" y2="629.31"/><line class="cls-1" x1="1385.45" y1="649.38" x2="11.03" y2="649.38"/><polyline class="cls-2" points="1.5 649.38 1 649.38 1.5 649.38"/><line class="cls-1" x1="20.55" y1="649.38" x2="1394.97" y2="649.38"/><line class="cls-1" x1="1385.45" y1="669.46" x2="11.03" y2="669.46"/><polyline class="cls-2" points="1.5 669.46 1 669.46 1.5 669.46"/><line class="cls-1" x1="20.55" y1="669.46" x2="1394.97" y2="669.46"/><line class="cls-3" x1="1395.73" y1="689.53" x2="1389.96" y2="689.53"/><line class="cls-4" x1="1385.7" y1="689.53" x2="6.01" y2="689.53"/><polyline class="cls-5" points="1.75 689.53 1 689.53 1.75 689.53"/><line class="cls-3" x1="10.27" y1="689.53" x2="16.04" y2="689.53"/><line class="cls-4" x1="20.3" y1="689.53" x2="1399.99" y2="689.53"/><line class="cls-1" x1="1385.45" y1="709.61" x2="11.03" y2="709.61"/><polyline class="cls-2" points="1.5 709.61 1 709.61 1.5 709.61"/><line class="cls-1" x1="20.55" y1="709.61" x2="1394.97" y2="709.61"/><line class="cls-1" x1="1385.45" y1="729.68" x2="11.03" y2="729.68"/><polyline class="cls-2" points="1.5 729.68 1 729.68 1.5 729.68"/><line class="cls-1" x1="20.55" y1="729.68" x2="1394.97" y2="729.68"/><line class="cls-1" x1="1385.45" y1="749.76" x2="11.03" y2="749.76"/><polyline class="cls-2" points="1.5 749.75 1 749.75 1.5 749.75"/><line class="cls-1" x1="20.55" y1="749.76" x2="1394.97" y2="749.76"/><line class="cls-1" x1="1385.45" y1="769.83" x2="11.03" y2="769.83"/><polyline class="cls-2" points="1.5 769.83 1 769.83 1.5 769.83"/><line class="cls-1" x1="20.55" y1="769.83" x2="1394.97" y2="769.83"/><line class="cls-6" x1="1394.97" y1="789.9" x2="1389.96" y2="789.9"/><line class="cls-7" x1="1385.95" y1="789.9" x2="6.01" y2="789.9"/><polyline class="cls-8" points="2 789.9 1 789.9 2 789.9"/><line class="cls-6" x1="11.03" y1="789.9" x2="16.04" y2="789.9"/><line class="cls-7" x1="20.05" y1="789.9" x2="1399.99" y2="789.9"/><line class="cls-1" x1="1385.45" y1="7" x2="11.03" y2="7"/><polyline class="cls-2" points="1.5 7 1 7 1.5 7"/><line class="cls-1" x1="20.55" y1="7" x2="1394.97" y2="7"/><line class="cls-1" x1="1385.45" y1="27.08" x2="11.03" y2="27.08"/><polyline class="cls-2" points="1.5 27.08 1 27.08 1.5 27.08"/><line class="cls-1" x1="20.55" y1="27.08" x2="1394.97" y2="27.08"/><line class="cls-1" x1="1385.45" y1="850.13" x2="11.03" y2="850.13"/><polyline class="cls-2" points="1.5 850.13 1 850.13 1.5 850.13"/><line class="cls-1" x1="20.55" y1="850.13" x2="1394.97" y2="850.13"/><line class="cls-1" x1="1385.45" y1="870.2" x2="11.03" y2="870.2"/><polyline class="cls-2" points="1.5 870.2 1 870.2 1.5 870.2"/><line class="cls-1" x1="20.55" y1="870.2" x2="1394.97" y2="870.2"/><line class="cls-3" x1="1395.73" y1="890.28" x2="1389.96" y2="890.28"/><line class="cls-4" x1="1385.7" y1="890.28" x2="6.01" y2="890.28"/><polyline class="cls-5" points="1.75 890.28 1 890.28 1.75 890.28"/><line class="cls-3" x1="10.27" y1="890.28" x2="16.04" y2="890.28"/><line class="cls-4" x1="20.3" y1="890.28" x2="1399.99" y2="890.28"/><line class="cls-1" x1="1385.45" y1="910.35" x2="11.03" y2="910.35"/><polyline class="cls-2" points="1.5 910.35 1 910.35 1.5 910.35"/><line class="cls-1" x1="20.55" y1="910.35" x2="1394.97" y2="910.35"/><line class="cls-1" x1="1385.45" y1="930.42" x2="11.03" y2="930.42"/><polyline class="cls-2" points="1.5 930.42 1 930.42 1.5 930.42"/><line class="cls-1" x1="20.55" y1="930.42" x2="1394.97" y2="930.42"/><line class="cls-1" x1="1385.45" y1="950.5" x2="11.03" y2="950.5"/><polyline class="cls-2" points="1.5 950.5 1 950.5 1.5 950.5"/><line class="cls-1" x1="20.55" y1="950.5" x2="1394.97" y2="950.5"/><line class="cls-1" x1="1385.45" y1="970.57" x2="11.03" y2="970.57"/><polyline class="cls-2" points="1.5 970.57 1 970.57 1.5 970.57"/><line class="cls-1" x1="20.55" y1="970.57" x2="1394.97" y2="970.57"/><line class="cls-6" x1="1394.97" y1="990.65" x2="1389.96" y2="990.65"/><line class="cls-7" x1="1385.95" y1="990.65" x2="6.01" y2="990.65"/><polyline class="cls-8" points="2 990.65 1 990.65 2 990.65"/><line class="cls-6" x1="11.03" y1="990.65" x2="16.04" y2="990.65"/><line class="cls-7" x1="20.05" y1="990.65" x2="1399.99" y2="990.65"/><line class="cls-1" x1="1385.45" y1="1010.72" x2="11.03" y2="1010.72"/><polyline class="cls-2" points="1.5 1010.72 1 1010.72 1.5 1010.72"/><line class="cls-1" x1="20.55" y1="1010.72" x2="1394.97" y2="1010.72"/><line class="cls-1" x1="1385.45" y1="1030.8" x2="11.03" y2="1030.8"/><polyline class="cls-2" points="1.5 1030.8 1 1030.8 1.5 1030.8"/><line class="cls-1" x1="20.55" y1="1030.8" x2="1394.97" y2="1030.8"/><line class="cls-1" x1="1385.45" y1="1050.87" x2="11.03" y2="1050.87"/><polyline class="cls-2" points="1.5 1050.87 1 1050.87 1.5 1050.87"/><line class="cls-1" x1="20.55" y1="1050.87" x2="1394.97" y2="1050.87"/><line class="cls-1" x1="1385.45" y1="1070.94" x2="11.03" y2="1070.94"/><polyline class="cls-2" points="1.5 1070.94 1 1070.94 1.5 1070.94"/><line class="cls-1" x1="20.55" y1="1070.94" x2="1394.97" y2="1070.94"/><line class="cls-3" x1="1395.73" y1="1091.02" x2="1389.96" y2="1091.02"/><line class="cls-4" x1="1385.7" y1="1091.02" x2="6.01" y2="1091.02"/><polyline class="cls-5" points="1.75 1091.02 1 1091.02 1.75 1091.02"/><line class="cls-3" x1="10.27" y1="1091.02" x2="16.04" y2="1091.02"/><line class="cls-4" x1="20.3" y1="1091.02" x2="1399.99" y2="1091.02"/><line class="cls-1" x1="1385.45" y1="1111.09" x2="11.03" y2="1111.09"/><polyline class="cls-2" points="1.5 1111.09 1 1111.09 1.5 1111.09"/><line class="cls-1" x1="20.55" y1="1111.09" x2="1394.97" y2="1111.09"/><line class="cls-1" x1="1385.45" y1="1131.17" x2="11.03" y2="1131.17"/><polyline class="cls-2" points="1.5 1131.17 1 1131.17 1.5 1131.17"/><line class="cls-1" x1="20.55" y1="1131.17" x2="1394.97" y2="1131.17"/><line class="cls-1" x1="1385.45" y1="1151.24" x2="11.03" y2="1151.24"/><polyline class="cls-2" points="1.5 1151.24 1 1151.24 1.5 1151.24"/><line class="cls-1" x1="20.55" y1="1151.24" x2="1394.97" y2="1151.24"/><line class="cls-1" x1="1385.45" y1="1171.32" x2="11.03" y2="1171.32"/><polyline class="cls-2" points="1.5 1171.32 1 1171.32 1.5 1171.32"/><line class="cls-1" x1="20.55" y1="1171.32" x2="1394.97" y2="1171.32"/><line class="cls-6" x1="1394.97" y1="1191.39" x2="1389.96" y2="1191.39"/><line class="cls-7" x1="1385.95" y1="1191.39" x2="6.01" y2="1191.39"/><polyline class="cls-8" points="2 1191.39 1 1191.39 2 1191.39"/><line class="cls-6" x1="11.03" y1="1191.39" x2="16.04" y2="1191.39"/><line class="cls-7" x1="20.05" y1="1191.39" x2="1399.99" y2="1191.39"/><line class="cls-1" x1="1385.45" y1="1211.47" x2="11.03" y2="1211.47"/><polyline class="cls-2" points="1.5 1211.46 1 1211.46 1.5 1211.46"/><line class="cls-1" x1="20.55" y1="1211.47" x2="1394.97" y2="1211.47"/><line class="cls-1" x1="1385.45" y1="1231.54" x2="11.03" y2="1231.54"/><polyline class="cls-2" points="1.5 1231.54 1 1231.54 1.5 1231.54"/><line class="cls-1" x1="20.55" y1="1231.54" x2="1394.97" y2="1231.54"/><line class="cls-1" x1="1385.45" y1="1251.61" x2="11.03" y2="1251.61"/><polyline class="cls-2" points="1.5 1251.61 1 1251.61 1.5 1251.61"/><line class="cls-1" x1="20.55" y1="1251.61" x2="1394.97" y2="1251.61"/><line class="cls-1" x1="1385.45" y1="1271.69" x2="11.03" y2="1271.69"/><polyline class="cls-2" points="1.5 1271.69 1 1271.69 1.5 1271.69"/><line class="cls-1" x1="20.55" y1="1271.69" x2="1394.97" y2="1271.69"/><line class="cls-3" x1="1395.73" y1="1291.76" x2="1389.96" y2="1291.76"/><line class="cls-4" x1="1385.7" y1="1291.76" x2="6.01" y2="1291.76"/><polyline class="cls-5" points="1.75 1291.76 1 1291.76 1.75 1291.76"/><line class="cls-3" x1="10.27" y1="1291.76" x2="16.04" y2="1291.76"/><line class="cls-4" x1="20.3" y1="1291.76" x2="1399.99" y2="1291.76"/><line class="cls-1" x1="1385.45" y1="1311.84" x2="11.03" y2="1311.84"/><polyline class="cls-2" points="1.5 1311.84 1 1311.84 1.5 1311.84"/><line class="cls-1" x1="20.55" y1="1311.84" x2="1394.97" y2="1311.84"/><line class="cls-1" x1="1385.45" y1="1331.91" x2="11.03" y2="1331.91"/><polyline class="cls-2" points="1.5 1331.91 1 1331.91 1.5 1331.91"/><line class="cls-1" x1="20.55" y1="1331.91" x2="1394.97" y2="1331.91"/><line class="cls-1" x1="1385.45" y1="1351.99" x2="11.03" y2="1351.99"/><polyline class="cls-2" points="1.5 1351.99 1 1351.99 1.5 1351.99"/><line class="cls-1" x1="20.55" y1="1351.99" x2="1394.97" y2="1351.99"/><line class="cls-1" x1="1385.45" y1="1372.06" x2="11.03" y2="1372.06"/><polyline class="cls-2" points="1.5 1372.06 1 1372.06 1.5 1372.06"/><line class="cls-1" x1="20.55" y1="1372.06" x2="1394.97" y2="1372.06"/><line class="cls-6" x1="1394.97" y1="1392.13" x2="1389.96" y2="1392.13"/><line class="cls-7" x1="1385.95" y1="1392.13" x2="6.01" y2="1392.13"/><polyline class="cls-8" points="2 1392.13 1 1392.13 2 1392.13"/><line class="cls-6" x1="11.03" y1="1392.13" x2="16.04" y2="1392.13"/><line class="cls-7" x1="20.05" y1="1392.13" x2="1399.99" y2="1392.13"/><line class="cls-1" x1="1385.45" y1="1412.21" x2="11.03" y2="1412.21"/><polyline class="cls-2" points="1.5 1412.21 1 1412.21 1.5 1412.21"/><line class="cls-1" x1="20.55" y1="1412.21" x2="1394.97" y2="1412.21"/><line class="cls-1" x1="1385.45" y1="1432.28" x2="11.03" y2="1432.28"/><polyline class="cls-2" points="1.5 1432.28 1 1432.28 1.5 1432.28"/><line class="cls-1" x1="20.55" y1="1432.28" x2="1394.97" y2="1432.28"/><line class="cls-1" x1="1385.45" y1="1452.36" x2="11.03" y2="1452.36"/><polyline class="cls-2" points="1.5 1452.36 1 1452.36 1.5 1452.36"/><line class="cls-1" x1="20.55" y1="1452.36" x2="1394.97" y2="1452.36"/><line class="cls-1" x1="1385.45" y1="1472.43" x2="11.03" y2="1472.43"/><polyline class="cls-2" points="1.5 1472.43 1 1472.43 1.5 1472.43"/><line class="cls-1" x1="20.55" y1="1472.43" x2="1394.97" y2="1472.43"/><line class="cls-3" x1="1395.73" y1="1492.51" x2="1389.96" y2="1492.51"/><line class="cls-4" x1="1385.7" y1="1492.51" x2="6.01" y2="1492.51"/><polyline class="cls-5" points="1.75 1492.51 1 1492.51 1.75 1492.51"/><line class="cls-3" x1="10.27" y1="1492.51" x2="16.04" y2="1492.51"/><line class="cls-4" x1="20.3" y1="1492.51" x2="1399.99" y2="1492.51"/><line class="cls-1" x1="1385.45" y1="1512.58" x2="11.03" y2="1512.58"/><polyline class="cls-2" points="1.5 1512.58 1 1512.58 1.5 1512.58"/><line class="cls-1" x1="20.55" y1="1512.58" x2="1394.97" y2="1512.58"/><line class="cls-1" x1="1385.45" y1="1532.65" x2="11.03" y2="1532.65"/><polyline class="cls-2" points="1.5 1532.65 1 1532.65 1.5 1532.65"/><line class="cls-1" x1="20.55" y1="1532.65" x2="1394.97" y2="1532.65"/><line class="cls-1" x1="1385.45" y1="1552.73" x2="11.03" y2="1552.73"/><polyline class="cls-2" points="1.5 1552.73 1 1552.73 1.5 1552.73"/><line class="cls-1" x1="20.55" y1="1552.73" x2="1394.97" y2="1552.73"/><line class="cls-1" x1="1385.45" y1="1572.8" x2="11.03" y2="1572.8"/><polyline class="cls-2" points="1.5 1572.8 1 1572.8 1.5 1572.8"/><line class="cls-1" x1="20.55" y1="1572.8" x2="1394.97" y2="1572.8"/><line class="cls-6" x1="1394.97" y1="1592.88" x2="1389.96" y2="1592.88"/><line class="cls-7" x1="1385.95" y1="1592.88" x2="6.01" y2="1592.88"/><polyline class="cls-8" points="2 1592.88 1 1592.88 2 1592.88"/><line class="cls-6" x1="11.03" y1="1592.88" x2="16.04" y2="1592.88"/><line class="cls-7" x1="20.05" y1="1592.88" x2="1399.99" y2="1592.88"/><line class="cls-1" x1="1385.45" y1="1612.95" x2="11.03" y2="1612.95"/><polyline class="cls-2" points="1.5 1612.95 1 1612.95 1.5 1612.95"/><line class="cls-1" x1="20.55" y1="1612.95" x2="1394.97" y2="1612.95"/><line class="cls-1" x1="1385.45" y1="1633.03" x2="11.03" y2="1633.03"/><polyline class="cls-2" points="1.5 1633.03 1 1633.03 1.5 1633.03"/><line class="cls-1" x1="20.55" y1="1633.03" x2="1394.97" y2="1633.03"/><line class="cls-1" x1="1385.45" y1="1653.1" x2="11.03" y2="1653.1"/><polyline class="cls-2" points="1.5 1653.1 1 1653.1 1.5 1653.1"/><line class="cls-1" x1="20.55" y1="1653.1" x2="1394.97" y2="1653.1"/><line class="cls-1" x1="1385.45" y1="1673.18" x2="11.03" y2="1673.18"/><polyline class="cls-2" points="1.5 1673.17 1 1673.17 1.5 1673.17"/><line class="cls-1" x1="20.55" y1="1673.18" x2="1394.97" y2="1673.18"/><line class="cls-3" x1="1395.73" y1="1693.25" x2="1389.96" y2="1693.25"/><line class="cls-4" x1="1385.7" y1="1693.25" x2="6.01" y2="1693.25"/><polyline class="cls-5" points="1.75 1693.25 1 1693.25 1.75 1693.25"/><line class="cls-3" x1="10.27" y1="1693.25" x2="16.04" y2="1693.25"/><line class="cls-4" x1="20.3" y1="1693.25" x2="1399.99" y2="1693.25"/><line class="cls-1" x1="1385.45" y1="1813.7" x2="11.03" y2="1813.7"/><polyline class="cls-2" points="1.5 1813.69 1 1813.69 1.5 1813.69"/><line class="cls-1" x1="20.55" y1="1813.7" x2="1394.97" y2="1813.7"/><line class="cls-1" x1="1385.45" y1="1833.77" x2="11.03" y2="1833.77"/><polyline class="cls-2" points="1.5 1833.77 1 1833.77 1.5 1833.77"/><line class="cls-1" x1="20.55" y1="1833.77" x2="1394.97" y2="1833.77"/><line class="cls-1" x1="1385.45" y1="1853.84" x2="11.03" y2="1853.84"/><polyline class="cls-2" points="1.5 1853.84 1 1853.84 1.5 1853.84"/><line class="cls-1" x1="20.55" y1="1853.84" x2="1394.97" y2="1853.84"/><line class="cls-1" x1="1385.45" y1="1713.32" x2="11.03" y2="1713.32"/><polyline class="cls-2" points="1.5 1713.32 1 1713.32 1.5 1713.32"/><line class="cls-1" x1="20.55" y1="1713.32" x2="1394.97" y2="1713.32"/><line class="cls-1" x1="1385.45" y1="1733.4" x2="11.03" y2="1733.4"/><polyline class="cls-2" points="1.5 1733.4 1 1733.4 1.5 1733.4"/><line class="cls-1" x1="20.55" y1="1733.4" x2="1394.97" y2="1733.4"/><line class="cls-1" x1="1385.45" y1="1753.47" x2="11.03" y2="1753.47"/><polyline class="cls-2" points="1.5 1753.47 1 1753.47 1.5 1753.47"/><line class="cls-1" x1="20.55" y1="1753.47" x2="1394.97" y2="1753.47"/><line class="cls-1" x1="1385.45" y1="1773.55" x2="11.03" y2="1773.55"/><polyline class="cls-2" points="1.5 1773.55 1 1773.55 1.5 1773.55"/><line class="cls-1" x1="20.55" y1="1773.55" x2="1394.97" y2="1773.55"/><line class="cls-6" x1="1394.97" y1="1793.62" x2="1389.96" y2="1793.62"/><line class="cls-7" x1="1385.95" y1="1793.62" x2="6.01" y2="1793.62"/><polyline class="cls-8" points="2 1793.62 1 1793.62 2 1793.62"/><line class="cls-6" x1="11.03" y1="1793.62" x2="16.04" y2="1793.62"/><line class="cls-7" x1="20.05" y1="1793.62" x2="1399.99" y2="1793.62"/><line class="cls-1" x1="1385.45" y1="809.98" x2="11.03" y2="809.98"/><polyline class="cls-2" points="1.5 809.98 1 809.98 1.5 809.98"/><line class="cls-1" x1="20.55" y1="809.98" x2="1394.97" y2="809.98"/><line class="cls-1" x1="1385.45" y1="830.05" x2="11.03" y2="830.05"/><polyline class="cls-2" points="1.5 830.05 1 830.05 1.5 830.05"/><line class="cls-1" x1="20.55" y1="830.05" x2="1394.97" y2="830.05"/></g><g id="Grid_Vertical" data-name="Grid Vertical"><line class="cls-9" x1="101.26" y1="1864.72" x2="101.26" y2="1858.95"/><line class="cls-10" x1="101.26" y1="1854.68" x2="101.26" y2="11.63"/><polyline class="cls-5" points="101.26 7.36 101.26 6.61 101.26 7.36"/><line class="cls-9" x1="101.26" y1="15.9" x2="101.26" y2="21.67"/><line class="cls-10" x1="101.26" y1="25.94" x2="101.26" y2="1868.99"/><line class="cls-11" x1="201.51" y1="1863.97" x2="201.51" y2="1858.95"/><line class="cls-12" x1="201.51" y1="1854.93" x2="201.51" y2="11.63"/><polyline class="cls-8" points="201.51 7.61 201.51 6.61 201.51 7.61"/><line class="cls-11" x1="201.51" y1="16.65" x2="201.51" y2="21.67"/><line class="cls-12" x1="201.51" y1="25.68" x2="201.51" y2="1868.99"/><line class="cls-9" x1="301.56" y1="1864.72" x2="301.56" y2="1858.95"/><line class="cls-10" x1="301.56" y1="1854.68" x2="301.56" y2="11.63"/><polyline class="cls-5" points="301.56 7.36 301.56 6.61 301.56 7.36"/><line class="cls-9" x1="301.56" y1="15.9" x2="301.56" y2="21.67"/><line class="cls-10" x1="301.56" y1="25.94" x2="301.56" y2="1868.99"/><line class="cls-11" x1="401.81" y1="1863.97" x2="401.81" y2="1858.95"/><line class="cls-12" x1="401.81" y1="1854.93" x2="401.81" y2="11.63"/><polyline class="cls-8" points="401.81 7.61 401.81 6.61 401.81 7.61"/><line class="cls-11" x1="401.81" y1="16.65" x2="401.81" y2="21.67"/><line class="cls-12" x1="401.81" y1="25.68" x2="401.81" y2="1868.99"/><line class="cls-9" x1="502.36" y1="1864.72" x2="502.36" y2="1858.95"/><line class="cls-10" x1="502.36" y1="1854.68" x2="502.36" y2="11.63"/><polyline class="cls-5" points="502.36 7.36 502.36 6.61 502.36 7.36"/><line class="cls-9" x1="502.36" y1="15.9" x2="502.36" y2="21.67"/><line class="cls-10" x1="502.36" y1="25.94" x2="502.36" y2="1868.99"/><line class="cls-11" x1="602.62" y1="1863.97" x2="602.62" y2="1858.95"/><line class="cls-12" x1="602.62" y1="1854.93" x2="602.62" y2="11.63"/><polyline class="cls-8" points="602.62 7.61 602.62 6.61 602.62 7.61"/><line class="cls-11" x1="602.62" y1="16.65" x2="602.62" y2="21.67"/><line class="cls-12" x1="602.62" y1="25.68" x2="602.62" y2="1868.99"/><line class="cls-9" x1="703" y1="1864.72" x2="703" y2="1858.95"/><line class="cls-10" x1="703" y1="1854.68" x2="703" y2="11.63"/><polyline class="cls-5" points="703 7.36 703 6.61 703 7.36"/><line class="cls-9" x1="703" y1="15.9" x2="703" y2="21.67"/><line class="cls-10" x1="703" y1="25.94" x2="703" y2="1868.99"/><line class="cls-11" x1="803.25" y1="1863.97" x2="803.25" y2="1858.95"/><line class="cls-12" x1="803.25" y1="1854.93" x2="803.25" y2="11.63"/><polyline class="cls-8" points="803.25 7.61 803.25 6.61 803.25 7.61"/><line class="cls-11" x1="803.25" y1="16.65" x2="803.25" y2="21.67"/><line class="cls-12" x1="803.25" y1="25.68" x2="803.25" y2="1868.99"/><line class="cls-9" x1="903.42" y1="1864.72" x2="903.42" y2="1858.95"/><line class="cls-10" x1="903.42" y1="1854.68" x2="903.42" y2="11.63"/><polyline class="cls-5" points="903.42 7.36 903.42 6.61 903.42 7.36"/><line class="cls-9" x1="903.42" y1="15.9" x2="903.42" y2="21.67"/><line class="cls-10" x1="903.42" y1="25.94" x2="903.42" y2="1868.99"/><line class="cls-11" x1="1003.67" y1="1863.97" x2="1003.67" y2="1858.95"/><line class="cls-12" x1="1003.67" y1="1854.93" x2="1003.67" y2="11.63"/><polyline class="cls-8" points="1003.67 7.61 1003.67 6.61 1003.67 7.61"/><line class="cls-11" x1="1003.67" y1="16.65" x2="1003.67" y2="21.67"/><line class="cls-12" x1="1003.67" y1="25.68" x2="1003.67" y2="1868.99"/><line class="cls-9" x1="1104.18" y1="1864.72" x2="1104.18" y2="1858.95"/><line class="cls-10" x1="1104.18" y1="1854.68" x2="1104.18" y2="11.63"/><polyline class="cls-5" points="1104.18 7.36 1104.18 6.61 1104.18 7.36"/><line class="cls-9" x1="1104.18" y1="15.9" x2="1104.18" y2="21.67"/><line class="cls-10" x1="1104.18" y1="25.94" x2="1104.18" y2="1868.99"/><line class="cls-11" x1="1204.44" y1="1863.97" x2="1204.44" y2="1858.95"/><line class="cls-12" x1="1204.44" y1="1854.93" x2="1204.44" y2="11.63"/><polyline class="cls-8" points="1204.44 7.61 1204.44 6.61 1204.44 7.61"/><line class="cls-11" x1="1204.44" y1="16.65" x2="1204.44" y2="21.67"/><line class="cls-12" x1="1204.44" y1="25.68" x2="1204.44" y2="1868.99"/><line class="cls-9" x1="1304.75" y1="1864.72" x2="1304.75" y2="1858.95"/><line class="cls-10" x1="1304.75" y1="1854.68" x2="1304.75" y2="11.63"/><polyline class="cls-5" points="1304.75 7.36 1304.75 6.61 1304.75 7.36"/><line class="cls-9" x1="1304.75" y1="15.9" x2="1304.75" y2="21.67"/><line class="cls-10" x1="1304.75" y1="25.94" x2="1304.75" y2="1868.99"/></g><g id="Layer_1" data-name="Layer 1"><rect class="cls-13" y="111" width="1404" height="147.21"/><rect class="cls-14" width="1404" height="111"/><line class="cls-15" y1="111" x2="1404" y2="111"/><line class="cls-16" x1="-0.48" y1="258.21" x2="1403.52" y2="258.21"/></g><g id="Layer_3" data-name="Layer 3"><rect class="cls-17" x="1142.38" y="29.64" width="239.9" height="61.08" rx="7.5"/><path class="cls-18" d="M1374.78,30.14a7,7,0,0,1,7,7V83.22a7,7,0,0,1-7,7h-224.9a7,7,0,0,1-7-7V37.14a7,7,0,0,1,7-7h224.9m0-1h-224.9a8,8,0,0,0-8,8V83.22a8,8,0,0,0,8,8h224.9a8,8,0,0,0,8-8V37.14a8,8,0,0,0-8-8Z"/><path class="cls-14" d="M1374.78,29.14a8,8,0,0,1,8,8V83.22a8,8,0,0,1-8,8h-224.9a8,8,0,0,1-8-8V37.14a8,8,0,0,1,8-8h224.9m0-2h-224.9a10,10,0,0,0-10,10V83.22a10,10,0,0,0,10,10h224.9a10,10,0,0,0,10-10V37.14a10,10,0,0,0-10-10Z"/><rect class="cls-17" x="147.92" y="29.64" width="978" height="61.08" rx="7.5"/><path class="cls-18" d="M1118.42,30.14a7,7,0,0,1,7,7V83.22a7,7,0,0,1-7,7h-963a7,7,0,0,1-7-7V37.14a7,7,0,0,1,7-7h963m0-1h-963a8,8,0,0,0-8,8V83.22a8,8,0,0,0,8,8h963a8,8,0,0,0,8-8V37.14a8,8,0,0,0-8-8Z"/><path class="cls-14" d="M1118.42,29.14a8,8,0,0,1,8,8V83.22a8,8,0,0,1-8,8h-963a8,8,0,0,1-8-8V37.14a8,8,0,0,1,8-8h963m0-2h-963a10,10,0,0,0-10,10V83.22a10,10,0,0,0,10,10h963a10,10,0,0,0,10-10V37.14a10,10,0,0,0-10-10Z"/></g><g id="Layer_2" data-name="Layer 2"><text class="cls-19" transform="translate(1154.8 58.51)"><tspan class="cls-20">D</tspan><tspan class="cls-21" x="14.66" y="0">A</tspan><tspan x="27.46" y="0">TE</tspan></text><text class="cls-19" transform="translate(160.2 58.51)">TITLE</text><text class="cls-22" transform="translate(33.57 144.95)">DE<tspan class="cls-23" x="26.98" y="0">T</tspan><tspan x="37.18" y="0">AILS</tspan></text><text class="cls-24" transform="translate(68.67 246.25)"><tspan class="cls-25">P</tspan><tspan class="cls-26" x="8.32" y="0">A</tspan><tspan x="19.23" y="0">GE #</tspan></text><path class="cls-27" d="M43.46,225.52l-.15,4.7A3,3,0,0,1,39.7,233l-2.94-.08v13.36a.54.54,0,0,0,.54.53H52.39a.54.54,0,0,0,.54-.53V226.06a.54.54,0,0,0-.54-.54Zm-.14-2.16h9.07a2.7,2.7,0,0,1,2.7,2.7v20.17a2.7,2.7,0,0,1-2.7,2.69H37.3a2.7,2.7,0,0,1-2.69-2.69V232.55l1.07-1.13v0l5.59-5.87h0l-1.49,1.58,1.56-1.66h0l0-.06h0Zm3.41-3.24H58.8v22H56.67V222H46.73Z"/><circle class="cls-17" cx="1355.96" cy="149.63" r="26.82"/><path class="cls-28" d="M1358.67,155.31a4.64,4.64,0,0,1,.43,2,.53.53,0,0,1,0,.13c.83,0,1.62-.12,2.35-.2a19,19,0,0,0,3.76-.74l.3-.1a12.08,12.08,0,0,0-1.83-.51A36.94,36.94,0,0,0,1358.67,155.31Zm-4.94,0c-1.16,0-2.26.13-3.25.24a19,19,0,0,0-3.76.74l-.3.1a11.92,11.92,0,0,0,1.84.51,35.53,35.53,0,0,0,5,.57c0-.06,0-.11,0-.16A4.59,4.59,0,0,1,1353.73,155.29Zm2.23-17.13a2,2,0,0,1,2.14,1.93,1.06,1.06,0,0,1,0,.25c3.58,1,6.23,4.69,6.23,7.08s-1.43,4.31,1.61,6.67l.13,0a5,5,0,0,1,1.89,1,1.62,1.62,0,0,1,0,2.45,3.72,3.72,0,0,1-1,.66,12.06,12.06,0,0,1-2.74.83,37.93,37.93,0,0,1-5.78.63,2.49,2.49,0,0,1-4.46,0c-1.35-.05-2.63-.14-3.79-.27a22.79,22.79,0,0,1-4.3-.85,5,5,0,0,1-1.9-1,1.62,1.62,0,0,1,0-2.45,3.89,3.89,0,0,1,1-.66,9.79,9.79,0,0,1,1.48-.53c2.75-2.25,1.48-4.14,1.48-6.54s2.51-5.85,5.92-7a2,2,0,0,1,0-.34A2,2,0,0,1,1356,138.16Z"/><circle class="cls-17" cx="1191.35" cy="149.63" r="26.82"/><path class="cls-28" d="M1197,154.75a.91.91,0,0,1,.84.57l2.55,6.19a.92.92,0,0,1-.5,1.21l-2.19.9-3.25-7.9,2.17-.9h0A.81.81,0,0,1,1197,154.75Zm-11.22-18.35,3.18,7.7c-1.07.45-.81,1.71,0,4.22a29.24,29.24,0,0,0,2.28,5.55c.72,1.32,1.54,2.56,2.66,2.09l3.26,7.91c-1.35.39-6.94.18-11.65-10.84C1180.54,141.42,1184.51,136.91,1185.82,136.4Zm3.14-1.23a.93.93,0,0,1,.84.57l2.48,6a.92.92,0,0,1-.5,1.21l-2.19.9-3.19-7.73,2.18-.9h0A.88.88,0,0,1,1189,135.17Z"/><circle class="cls-17" cx="862.13" cy="149.63" r="26.82"/><path class="cls-28" d="M851.07,139.59a1,1,0,0,1,1,1v19a1,1,0,1,1-2,0v-19A1,1,0,0,1,851.07,139.59Zm7.72-.89c5,0,9.11,2.67,15.4.39v13.15c-8.38,3-12.86-2.73-20.86.8V139.89A13.08,13.08,0,0,1,858.79,138.7Z"/><circle class="cls-17" cx="944.44" cy="149.63" r="26.82"/><path class="cls-28" d="M946.57,161a.57.57,0,0,1,.07,1.14l-4.28.48h-.06a.58.58,0,0,1-.57-.51.56.56,0,0,1,.5-.62l4.28-.49Zm1.39-2.09a.57.57,0,0,1,.57.51.56.56,0,0,1-.5.62l-7.06.79h-.06a.56.56,0,0,1-.56-.5.57.57,0,0,1,.5-.63l7-.78Zm0-1.92a.57.57,0,0,1,.07,1.14l-7.06.78h-.06a.57.57,0,0,1-.56-.51.56.56,0,0,1,.5-.62l7-.79Zm-3.8-18.29a5.38,5.38,0,0,0-5.38,5.38.63.63,0,0,0,1.25,0,4.13,4.13,0,0,1,4.13-4.13.63.63,0,1,0,0-1.25Zm.28-2a7.91,7.91,0,0,1,7.93,7.89c0,2.88-2.65,5.56-2.65,5.56a4.78,4.78,0,0,0-1.21,2.94v.24a1.73,1.73,0,0,1-1.72,1.72h-4.71a1.72,1.72,0,0,1-1.71-1.72v-.24a4.83,4.83,0,0,0-1.21-2.94s-2.65-2.68-2.65-5.56A7.91,7.91,0,0,1,944.44,136.67Z"/><circle class="cls-17" cx="1109.05" cy="149.63" r="26.82"/><path class="cls-28" d="M1100.35,148.93h2.22v.69a6.48,6.48,0,1,0,13,0v-.69h2.21v.69a8.71,8.71,0,0,1-7.73,8.64v3.31h1.44v1.19h-4.81v-1.19h1.28v-3.34a8.69,8.69,0,0,1-7.57-8.61Zm8.7-12.43a3.53,3.53,0,0,1,3.53,3.53v10.06a3.53,3.53,0,1,1-7.06,0V140A3.53,3.53,0,0,1,1109.05,136.5Z"/><circle class="cls-17" cx="1026.74" cy="149.63" r="26.82"/><path class="cls-28" d="M1034.49,149.23h2.89a3.91,3.91,0,0,1,3.9,3.91v5.11h-6.68v-5a6.1,6.1,0,0,0-1.34-3.82A3.88,3.88,0,0,1,1034.49,149.23Zm-18.38,0H1019a4.15,4.15,0,0,1,.88.11,6.17,6.17,0,0,0-1.41,3.93v5h-6.25v-5.11A3.91,3.91,0,0,1,1016.11,149.23Zm8.54-1h3.76a5.09,5.09,0,0,1,5.09,5.09V160h-14v-6.68A5.09,5.09,0,0,1,1024.65,148.18Zm11.38-5.73a3.16,3.16,0,1,1-3.16,3.16A3.17,3.17,0,0,1,1036,142.45Zm-18.38,0a3.16,3.16,0,1,1-3.16,3.16A3.16,3.16,0,0,1,1017.65,142.45Zm9-3.13h.21l.21,0,.21,0,.2,0,.2,0,.19.05.2.07.18.07.19.09a.91.91,0,0,1,.17.09l.18.1.16.1.17.12.15.12.15.13.15.14.13.14.13.15.12.16.12.16c0,.05.07.11.11.17l.1.17.09.18.08.18a1.07,1.07,0,0,1,.07.19,1.07,1.07,0,0,1,.07.19,1.33,1.33,0,0,1,.05.19,1.94,1.94,0,0,1,0,.2c0,.07,0,.14,0,.21a1.23,1.23,0,0,1,0,.2,1.49,1.49,0,0,1,0,.21v.43a1.49,1.49,0,0,1,0,.21,1.36,1.36,0,0,1,0,.2c0,.07,0,.14,0,.21a1.94,1.94,0,0,1,0,.2,1.33,1.33,0,0,1-.05.19,4045650785380.52,4045650785380.52,0,0,1-.14.38l-.08.18-.09.18-.1.17c0,.06-.07.12-.11.17l-.12.16-.12.16-.13.15-.13.14-.15.14-.15.13-.15.12-.17.12-.16.1-.18.1-.17.09-.19.09-.18.07-.2.06-.19.06-.2.05-.2,0-.21,0h-.84l-.21,0-.2,0-.2-.05-.2-.06-.19-.06-.19-.07-.18-.09-.18-.09-.17-.1-.17-.1-.16-.12-.16-.12-.15-.13a1.85,1.85,0,0,0-.14-.14,1.85,1.85,0,0,1-.14-.14l-.13-.15-.12-.16a.91.91,0,0,1-.11-.16,1,1,0,0,1-.11-.17l-.1-.17-.09-.18a1.42,1.42,0,0,1-.08-.18c0-.06-.05-.12-.08-.19l-.06-.19-.06-.19c0-.07,0-.14,0-.2a1.55,1.55,0,0,1,0-.21l0-.2c0-.07,0-.14,0-.21a1.48,1.48,0,0,1,0-.21,1.55,1.55,0,0,1,0-.22c0-.07,0-.14,0-.21l0-.2a1.55,1.55,0,0,1,0-.21c0-.06,0-.13,0-.2l.06-.19.06-.19c0-.07.05-.13.08-.19a1.42,1.42,0,0,1,.08-.18l.09-.18.1-.17a1,1,0,0,1,.11-.17.91.91,0,0,1,.11-.16l.12-.16.13-.15a1.85,1.85,0,0,1,.14-.14,1.85,1.85,0,0,0,.14-.14l.15-.13.16-.12.16-.12.17-.1.17-.1.18-.09.18-.09.19-.07.19-.07.2-.05.2,0,.2,0,.21,0,.21,0Z"/><circle class="cls-17" cx="1273.66" cy="149.63" r="26.82"/><path class="cls-28" d="M1261.16,142.39h0l5.9,5.78,6.57,6.44,6.57-6.44,5.89-5.78h.05v16.4h-25Zm1.48-1.92h22l-5.51,5.53-5.51,5.52-5.5-5.52Z"/></g></svg>