<svg xmlns="http://www.w3.org/2000/svg" viewBox="0 0 1404 1872"><defs><style>.cls-1{fill:#d1d3d4;}.cls-2{fill:#ededed;}.cls-10,.cls-11,.cls-12,.cls-13,.cls-14,.cls-23,.cls-24,.cls-3,.cls-4,.cls-8,.cls-9{fill:none;stroke-miterlimit:10;}.cls-3{stroke:#231f20;}.cls-4{stroke:#808285;}.cls-5{fill:#fff;}.cls-6{fill:#231f20;}.cls-20,.cls-25,.cls-27,.cls-7{fill:#a7a9ac;}.cls-14,.cls-8,.cls-9{stroke:#414042;}.cls-10,.cls-11,.cls-12,.cls-13,.cls-14,.cls-23,.cls-24,.cls-8,.cls-9{stroke-width:0.5px;}.cls-9{stroke-dasharray:0.5 1.99;}.cls-10,.cls-11{stroke:#6d6e71;}.cls-11{stroke-dasharray:0.5 2;}.cls-12,.cls-13{stroke:#58595b;}.cls-13{stroke-dasharray:1 2;}.cls-14{stroke-dasharray:0.5 2;}.cls-15,.cls-20,.cls-25{font-size:20px;}.cls-15{fill:#bcbec0;}.cls-15,.cls-20,.cls-25,.cls-27{font-family:AvenirNext-Regular, Avenir Next;}.cls-16{letter-spacing:-0.02em;}.cls-17{letter-spacing:-0.06em;}.cls-18{letter-spacing:-0.01em;}.cls-19{letter-spacing:-0.02em;}.cls-20{letter-spacing:-0.02em;}.cls-21{letter-spacing:0em;}.cls-22{letter-spacing:-0.02em;}.cls-23,.cls-24{stroke:#a7a9ac;}.cls-24{stroke-dasharray:1.01 2.03;}.cls-26{letter-spacing:-0.06em;}.cls-27{font-size:16px;}.cls-28{letter-spacing:-0.06em;}.cls-29{letter-spacing:-0.02em;}.cls-30{fill:#808285;}</style></defs><g id="Layer_1" data-name="Layer 1"><rect class="cls-1" width="1404" height="111"/><rect class="cls-2" y="111" width="1404" height="243.28"/><line class="cls-3" x1="0.29" y1="111" x2="1404.29" y2="111"/><line class="cls-4" x1="0.29" y1="354.28" x2="1404.29" y2="354.28"/></g><g id="Layer_3" data-name="Layer 3"><rect class="cls-5" x="1011.98" y="29.64" width="370.3" height="61.08" rx="7.5"/><path class="cls-6" d="M1374.78,30.14a7,7,0,0,1,7,7V83.22a7,7,0,0,1-7,7h-355.3a7,7,0,0,1-7-7V37.14a7,7,0,0,1,7-7h355.3m0-1h-355.3a8,8,0,0,0-8,8V83.22a8,8,0,0,0,8,8h355.3a8,8,0,0,0,8-8V37.14a8,8,0,0,0-8-8Z"/><path class="cls-7" d="M1374.78,29.14a8,8,0,0,1,8,8V83.22a8,8,0,0,1-8,8h-355.3a8,8,0,0,1-8-8V37.14a8,8,0,0,1,8-8h355.3m0-2h-355.3a10,10,0,0,0-10,10V83.22a10,10,0,0,0,10,10h355.3a10,10,0,0,0,10-10V37.14a10,10,0,0,0-10-10Z"/><rect class="cls-5" x="96.09" y="29.64" width="899.14" height="61.08" rx="7.5"/><path class="cls-6" d="M987.73,30.14a7,7,0,0,1,7,7V83.22a7,7,0,0,1-7,7H103.59a7,7,0,0,1-7-7V37.14a7,7,0,0,1,7-7H987.73m0-1H103.59a8,8,0,0,0-8,8V83.22a8,8,0,0,0,8,8H987.73a8,8,0,0,0,8-8V37.14a8,8,0,0,0-8-8Z"/><path class="cls-7" d="M987.73,29.14a8,8,0,0,1,8,8V83.22a8,8,0,0,1-8,8H103.59a8,8,0,0,1-8-8V37.14a8,8,0,0,1,8-8H987.73m0-2H103.59a10,10,0,0,0-10,10V83.22a10,10,0,0,0,10,10H987.73a10,10,0,0,0,10-10V37.14a10,10,0,0,0-10-10Z"/></g><g id="Layer_2" data-name="Layer 2"><polyline class="cls-8" points="333.6 192.96 333.6 192.71 333.6 192.96"/><line class="cls-9" x1="333.6" y1="194.95" x2="333.6" y2="351.04"/><polyline class="cls-8" points="333.6 352.03 333.6 352.28 333.6 352.03"/><line class="cls-9" x1="333.6" y1="350.04" x2="333.6" y2="193.96"/><polyline class="cls-10" points="185.87 398.17 185.87 397.92 185.87 398.17"/><line class="cls-11" x1="185.86" y1="400.17" x2="185.86" y2="1855.28"/><polyline class="cls-10" points="185.87 1856.28 185.87 1856.53 185.87 1856.28"/><line class="cls-11" x1="185.86" y1="1854.28" x2="185.86" y2="399.17"/><polyline class="cls-10" points="1079.7 398.17 1079.7 397.92 1079.7 398.17"/><line class="cls-11" x1="1079.7" y1="400.17" x2="1079.7" y2="1855.28"/><polyline class="cls-10" points="1079.7 1856.28 1079.7 1856.53 1079.7 1856.28"/><line class="cls-11" x1="1079.7" y1="1854.28" x2="1079.7" y2="399.17"/><polyline class="cls-12" points="1403.73 411.82 1404.23 411.82 1403.73 411.82"/><line class="cls-13" x1="1401.73" y1="411.82" x2="1.73" y2="411.82"/><polyline class="cls-12" points="0.73 411.82 0.23 411.82 0.73 411.82"/><line class="cls-13" x1="2.73" y1="411.82" x2="1402.73" y2="411.82"/><polyline class="cls-8" points="1382.53 186.72 1382.78 186.72 1382.53 186.72"/><line class="cls-14" x1="1380.53" y1="186.71" x2="27.87" y2="186.71"/><polyline class="cls-8" points="26.87 186.72 26.62 186.72 26.87 186.72"/><line class="cls-14" x1="28.87" y1="186.71" x2="1381.53" y2="186.71"/><polyline class="cls-12" points="1403.73 466.3 1404.23 466.3 1403.73 466.3"/><line class="cls-13" x1="1401.73" y1="466.3" x2="1.73" y2="466.3"/><polyline class="cls-12" points="0.73 466.3 0.23 466.3 0.73 466.3"/><line class="cls-13" x1="2.73" y1="466.3" x2="1402.73" y2="466.3"/><polyline class="cls-12" points="1403.73 520.79 1404.23 520.79 1403.73 520.79"/><line class="cls-13" x1="1401.73" y1="520.79" x2="1.73" y2="520.79"/><polyline class="cls-12" points="0.73 520.79 0.23 520.79 0.73 520.79"/><line class="cls-13" x1="2.73" y1="520.79" x2="1402.73" y2="520.79"/><polyline class="cls-12" points="1403.73 575.27 1404.23 575.27 1403.73 575.27"/><line class="cls-13" x1="1401.73" y1="575.27" x2="1.73" y2="575.27"/><polyline class="cls-12" points="0.73 575.27 0.23 575.27 0.73 575.27"/><line class="cls-13" x1="2.73" y1="575.27" x2="1402.73" y2="575.27"/><polyline class="cls-12" points="1403.73 629.76 1404.23 629.76 1403.73 629.76"/><line class="cls-13" x1="1401.73" y1="629.76" x2="1.73" y2="629.76"/><polyline class="cls-12" points="0.73 629.76 0.23 629.76 0.73 629.76"/><line class="cls-13" x1="2.73" y1="629.76" x2="1402.73" y2="629.76"/><polyline class="cls-12" points="1403.73 684.24 1404.23 684.24 1403.73 684.24"/><line class="cls-13" x1="1401.73" y1="684.24" x2="1.73" y2="684.24"/><polyline class="cls-12" points="0.73 684.24 0.23 684.24 0.73 684.24"/><line class="cls-13" x1="2.73" y1="684.24" x2="1402.73" y2="684.24"/><polyline class="cls-12" points="1403.73 738.73 1404.23 738.73 1403.73 738.73"/><line class="cls-13" x1="1401.73" y1="738.73" x2="1.73" y2="738.73"/><polyline class="cls-12" points="0.73 738.73 0.23 738.73 0.73 738.73"/><line class="cls-13" x1="2.73" y1="738.73" x2="1402.73" y2="738.73"/><polyline class="cls-12" points="1403.73 793.21 1404.23 793.21 1403.73 793.21"/><line class="cls-13" x1="1401.73" y1="793.21" x2="1.73" y2="793.21"/><polyline class="cls-12" points="0.73 793.21 0.23 793.21 0.73 793.21"/><line class="cls-13" x1="2.73" y1="793.21" x2="1402.73" y2="793.21"/><polyline class="cls-12" points="1403.73 847.7 1404.23 847.7 1403.73 847.7"/><line class="cls-13" x1="1401.73" y1="847.69" x2="1.73" y2="847.69"/><polyline class="cls-12" points="0.73 847.7 0.23 847.7 0.73 847.7"/><line class="cls-13" x1="2.73" y1="847.69" x2="1402.73" y2="847.69"/><polyline class="cls-12" points="1403.73 902.18 1404.23 902.18 1403.73 902.18"/><line class="cls-13" x1="1401.73" y1="902.18" x2="1.73" y2="902.18"/><polyline class="cls-12" points="0.73 902.18 0.23 902.18 0.73 902.18"/><line class="cls-13" x1="2.73" y1="902.18" x2="1402.73" y2="902.18"/><polyline class="cls-12" points="1403.73 956.66 1404.23 956.66 1403.73 956.66"/><line class="cls-13" x1="1401.73" y1="956.66" x2="1.73" y2="956.66"/><polyline class="cls-12" points="0.73 956.66 0.23 956.66 0.73 956.66"/><line class="cls-13" x1="2.73" y1="956.66" x2="1402.73" y2="956.66"/><polyline class="cls-12" points="1403.73 1011.15 1404.23 1011.15 1403.73 1011.15"/><line class="cls-13" x1="1401.73" y1="1011.15" x2="1.73" y2="1011.15"/><polyline class="cls-12" points="0.73 1011.15 0.23 1011.15 0.73 1011.15"/><line class="cls-13" x1="2.73" y1="1011.15" x2="1402.73" y2="1011.15"/><polyline class="cls-12" points="1403.73 1065.63 1404.23 1065.63 1403.73 1065.63"/><line class="cls-13" x1="1401.73" y1="1065.63" x2="1.73" y2="1065.63"/><polyline class="cls-12" points="0.73 1065.63 0.23 1065.63 0.73 1065.63"/><line class="cls-13" x1="2.73" y1="1065.63" x2="1402.73" y2="1065.63"/><polyline class="cls-12" points="1403.73 1120.12 1404.23 1120.12 1403.73 1120.12"/><line class="cls-13" x1="1401.73" y1="1120.12" x2="1.73" y2="1120.12"/><polyline class="cls-12" points="0.73 1120.12 0.23 1120.12 0.73 1120.12"/><line class="cls-13" x1="2.73" y1="1120.12" x2="1402.73" y2="1120.12"/><polyline class="cls-12" points="1403.73 1174.6 1404.23 1174.6 1403.73 1174.6"/><line class="cls-13" x1="1401.73" y1="1174.6" x2="1.73" y2="1174.6"/><polyline class="cls-12" points="0.73 1174.6 0.23 1174.6 0.73 1174.6"/><line class="cls-13" x1="2.73" y1="1174.6" x2="1402.73" y2="1174.6"/><polyline class="cls-12" points="1403.73 1229.09 1404.23 1229.09 1403.73 1229.09"/><line class="cls-13" x1="1401.73" y1="1229.09" x2="1.73" y2="1229.09"/><polyline class="cls-12" points="0.73 1229.09 0.23 1229.09 0.73 1229.09"/><line class="cls-13" x1="2.73" y1="1229.09" x2="1402.73" y2="1229.09"/><polyline class="cls-12" points="1403.73 1283.57 1404.23 1283.57 1403.73 1283.57"/><line class="cls-13" x1="1401.73" y1="1283.57" x2="1.73" y2="1283.57"/><polyline class="cls-12" points="0.73 1283.57 0.23 1283.57 0.73 1283.57"/><line class="cls-13" x1="2.73" y1="1283.57" x2="1402.73" y2="1283.57"/><polyline class="cls-12" points="1403.73 1338.06 1404.23 1338.06 1403.73 1338.06"/><line class="cls-13" x1="1401.73" y1="1338.06" x2="1.73" y2="1338.06"/><polyline class="cls-12" points="0.73 1338.06 0.23 1338.06 0.73 1338.06"/><line class="cls-13" x1="2.73" y1="1338.06" x2="1402.73" y2="1338.06"/><polyline class="cls-12" points="1403.73 1392.54 1404.23 1392.54 1403.73 1392.54"/><line class="cls-13" x1="1401.73" y1="1392.54" x2="1.73" y2="1392.54"/><polyline class="cls-12" points="0.73 1392.54 0.23 1392.54 0.73 1392.54"/><line class="cls-13" x1="2.73" y1="1392.54" x2="1402.73" y2="1392.54"/><polyline class="cls-12" points="1403.73 1447.03 1404.23 1447.03 1403.73 1447.03"/><line class="cls-13" x1="1401.73" y1="1447.03" x2="1.73" y2="1447.03"/><polyline class="cls-12" points="0.73 1447.03 0.23 1447.03 0.73 1447.03"/><line class="cls-13" x1="2.73" y1="1447.03" x2="1402.73" y2="1447.03"/><polyline class="cls-12" points="1403.73 1501.51 1404.23 1501.51 1403.73 1501.51"/><line class="cls-13" x1="1401.73" y1="1501.51" x2="1.73" y2="1501.51"/><polyline class="cls-12" points="0.73 1501.51 0.23 1501.51 0.73 1501.51"/><line class="cls-13" x1="2.73" y1="1501.51" x2="1402.73" y2="1501.51"/><polyline class="cls-12" points="1403.73 1556 1404.23 1556 1403.73 1556"/><line class="cls-13" x1="1401.73" y1="1556" x2="1.73" y2="1556"/><polyline class="cls-12" points="0.73 1556 0.23 1556 0.73 1556"/><line class="cls-13" x1="2.73" y1="1556" x2="1402.73" y2="1556"/><polyline class="cls-12" points="1403.73 1610.48 1404.23 1610.48 1403.73 1610.48"/><line class="cls-13" x1="1401.73" y1="1610.48" x2="1.73" y2="1610.48"/><polyline class="cls-12" points="0.73 1610.48 0.23 1610.48 0.73 1610.48"/><line class="cls-13" x1="2.73" y1="1610.48" x2="1402.73" y2="1610.48"/><polyline class="cls-12" points="1403.73 1664.97 1404.23 1664.97 1403.73 1664.97"/><line class="cls-13" x1="1401.73" y1="1664.97" x2="1.73" y2="1664.97"/><polyline class="cls-12" points="0.73 1664.97 0.23 1664.97 0.73 1664.97"/><line class="cls-13" x1="2.73" y1="1664.97" x2="1402.73" y2="1664.97"/><polyline class="cls-12" points="1403.73 1719.45 1404.23 1719.45 1403.73 1719.45"/><line class="cls-13" x1="1401.73" y1="1719.45" x2="1.73" y2="1719.45"/><polyline class="cls-12" points="0.73 1719.45 0.23 1719.45 0.73 1719.45"/><line class="cls-13" x1="2.73" y1="1719.45" x2="1402.73" y2="1719.45"/><polyline class="cls-12" points="1403.73 1773.94 1404.23 1773.94 1403.73 1773.94"/><line class="cls-13" x1="1401.73" y1="1773.94" x2="1.73" y2="1773.94"/><polyline class="cls-12" points="0.73 1773.94 0.23 1773.94 0.73 1773.94"/><line class="cls-13" x1="2.73" y1="1773.94" x2="1402.73" y2="1773.94"/><polyline class="cls-12" points="1403.73 1828.42 1404.23 1828.42 1403.73 1828.42"/><line class="cls-13" x1="1401.73" y1="1828.42" x2="1.73" y2="1828.42"/><polyline class="cls-12" points="0.73 1828.42 0.23 1828.42 0.73 1828.42"/><line class="cls-13" x1="2.73" y1="1828.42" x2="1402.73" y2="1828.42"/><text class="cls-15" transform="translate(1024.4 58.51)"><tspan class="cls-16">D</tspan><tspan class="cls-17" x="14.66" y="0">A</tspan><tspan x="27.46" y="0">TE /</tspan><tspan class="cls-16" x="63.1" y="0"> </tspan><tspan x="67.62" y="0">TIME</tspan></text><text class="cls-15" transform="translate(108.51 58.51)">MEETING SUBJE<tspan class="cls-18" x="153.74" y="0">C</tspan><tspan class="cls-19" x="168.02" y="0">T</tspan></text><text class="cls-20" transform="translate(348.39 217.08)">A<tspan class="cls-21" x="13.64" y="0">GEN</tspan><tspan class="cls-19" x="56.34" y="0">D</tspan><tspan class="cls-22" x="71" y="0">A</tspan></text><polyline class="cls-8" points="907.6 192.96 907.6 192.71 907.6 192.96"/><line class="cls-9" x1="907.6" y1="194.95" x2="907.6" y2="351.04"/><polyline class="cls-8" points="907.6 352.03 907.6 352.28 907.6 352.03"/><line class="cls-9" x1="907.6" y1="350.04" x2="907.6" y2="193.96"/><polyline class="cls-23" points="1239 36.45 1239 35.95 1239 36.45"/><line class="cls-24" x1="1239" y1="38.48" x2="1239" y2="83.12"/><polyline class="cls-23" points="1239 84.13 1239 84.63 1239 84.13"/><line class="cls-24" x1="1239" y1="82.1" x2="1239" y2="37.46"/><text class="cls-25" transform="translate(922.39 217.08)"><tspan class="cls-17">A</tspan><tspan x="12.8" y="0">TTENDEES</tspan></text><text class="cls-25" transform="translate(26.62 217.08)">DE<tspan class="cls-26" x="26.98" y="0">T</tspan><tspan x="37.18" y="0">AILS</tspan></text><text class="cls-27" transform="translate(58.68 135.54)"><tspan class="cls-28">P</tspan><tspan class="cls-29" x="8.32" y="0">A</tspan><tspan x="19.23" y="0">GE #</tspan></text><path class="cls-5" d="M48.63,85.13A26.74,26.74,0,1,1,75.37,58.39,26.76,26.76,0,0,1,48.63,85.13Z"/><path class="cls-6" d="M48.63,32.15A26.24,26.24,0,1,1,22.39,58.39,26.27,26.27,0,0,1,48.63,32.15m0-1A27.24,27.24,0,1,0,75.87,58.39,27.24,27.24,0,0,0,48.63,31.15Z"/><path class="cls-7" d="M48.63,31.15A27.24,27.24,0,1,1,21.39,58.39,27.25,27.25,0,0,1,48.63,31.15m0-2A29.24,29.24,0,1,0,77.87,58.39,29.27,29.27,0,0,0,48.63,29.15Z"/><circle class="cls-5" cx="1354.18" cy="149.63" r="26.82"/><path class="cls-30" d="M1356.89,155.31a4.64,4.64,0,0,1,.43,2v.13c.82,0,1.61-.12,2.34-.2a19,19,0,0,0,3.76-.74l.3-.1a12.08,12.08,0,0,0-1.83-.51A36.75,36.75,0,0,0,1356.89,155.31Zm-4.94,0c-1.16,0-2.26.13-3.25.24a19,19,0,0,0-3.76.74l-.3.1a11.92,11.92,0,0,0,1.84.51,35.53,35.53,0,0,0,5,.57c0-.06,0-.11,0-.16A4.59,4.59,0,0,1,1352,155.29Zm2.23-17.13a2,2,0,0,1,2.14,1.93,1.06,1.06,0,0,1,0,.25c3.58,1,6.23,4.69,6.23,7.08s-1.43,4.31,1.61,6.67l.13,0a5,5,0,0,1,1.89,1,1.62,1.62,0,0,1,0,2.45,3.72,3.72,0,0,1-1,.66,12.13,12.13,0,0,1-2.73.83,38.22,38.22,0,0,1-5.79.63,2.49,2.49,0,0,1-4.46,0c-1.35-.05-2.63-.14-3.79-.27a22.79,22.79,0,0,1-4.3-.85,5,5,0,0,1-1.9-1,1.62,1.62,0,0,1,0-2.45,3.78,3.78,0,0,1,1-.66,9.27,9.27,0,0,1,1.47-.53c2.75-2.25,1.48-4.14,1.48-6.54s2.51-5.85,5.92-7a2,2,0,0,1,0-.34A2,2,0,0,1,1354.18,138.16Z"/><circle class="cls-5" cx="1189.57" cy="149.63" r="26.82"/><path class="cls-30" d="M1195.26,154.75a.91.91,0,0,1,.84.57l2.55,6.19a.92.92,0,0,1-.5,1.21l-2.19.9-3.25-7.9,2.17-.9h0A.81.81,0,0,1,1195.26,154.75ZM1184,136.4l3.18,7.7c-1.07.45-.81,1.71,0,4.22a29.24,29.24,0,0,0,2.28,5.55c.72,1.32,1.54,2.56,2.66,2.09l3.26,7.91c-1.35.39-6.94.18-11.65-10.84C1178.76,141.42,1182.73,136.91,1184,136.4Zm3.14-1.23a.93.93,0,0,1,.84.57l2.48,6a.92.92,0,0,1-.5,1.21l-2.19.9-3.19-7.73,2.18-.9h0A.88.88,0,0,1,1187.18,135.17Z"/><circle class="cls-5" cx="860.35" cy="149.63" r="26.82"/><path class="cls-30" d="M849.29,139.59a1,1,0,0,1,1,1v19a1,1,0,0,1-2,0v-19A1,1,0,0,1,849.29,139.59Zm7.72-.89c5,0,9.11,2.67,15.4.39v13.15c-8.38,3-12.86-2.73-20.86.8V139.89A13.08,13.08,0,0,1,857,138.7Z"/><circle class="cls-5" cx="942.66" cy="149.63" r="26.82"/><path class="cls-30" d="M944.79,161a.57.57,0,0,1,.07,1.14l-4.28.48h-.06a.56.56,0,0,1-.56-.51.55.55,0,0,1,.49-.62l4.28-.49Zm1.39-2.09a.57.57,0,0,1,.57.51.56.56,0,0,1-.5.62l-7.06.79h-.06a.56.56,0,0,1-.56-.5.57.57,0,0,1,.5-.63l7.06-.78Zm0-1.92a.57.57,0,0,1,.07,1.14l-7.06.78h-.06a.57.57,0,0,1-.56-.51.56.56,0,0,1,.5-.62l7.06-.79Zm-3.8-18.29a5.38,5.38,0,0,0-5.38,5.38.63.63,0,0,0,1.25,0,4.13,4.13,0,0,1,4.13-4.13.63.63,0,1,0,0-1.25Zm.28-2a7.91,7.91,0,0,1,7.93,7.89c0,2.88-2.65,5.56-2.65,5.56a4.78,4.78,0,0,0-1.21,2.94v.24A1.73,1.73,0,0,1,945,155h-4.7a1.73,1.73,0,0,1-1.72-1.72v-.24a4.83,4.83,0,0,0-1.21-2.94s-2.65-2.68-2.65-5.56A7.91,7.91,0,0,1,942.66,136.67Z"/><circle class="cls-5" cx="1107.27" cy="149.63" r="26.82"/><path class="cls-30" d="M1098.57,148.93h2.22v.69a6.48,6.48,0,0,0,13,0v-.69H1116v.69a8.71,8.71,0,0,1-7.73,8.64v3.31h1.44v1.19h-4.8v-1.19h1.27v-3.34a8.69,8.69,0,0,1-7.57-8.61Zm8.7-12.43a3.53,3.53,0,0,1,3.53,3.53v10.06a3.53,3.53,0,1,1-7.06,0V140A3.53,3.53,0,0,1,1107.27,136.5Z"/><circle class="cls-5" cx="1024.96" cy="149.63" r="26.82"/><path class="cls-30" d="M1032.71,149.23h2.89a3.91,3.91,0,0,1,3.9,3.91v5.11h-6.68v-5a6.15,6.15,0,0,0-1.33-3.82A3.77,3.77,0,0,1,1032.71,149.23Zm-18.38,0h2.88a4.15,4.15,0,0,1,.88.11,6.17,6.17,0,0,0-1.41,3.93v5h-6.25v-5.11A3.91,3.91,0,0,1,1014.33,149.23Zm8.54-1h3.76a5.09,5.09,0,0,1,5.09,5.09V160h-14v-6.68A5.09,5.09,0,0,1,1022.87,148.18Zm11.38-5.73a3.16,3.16,0,1,1-3.16,3.16A3.17,3.17,0,0,1,1034.25,142.45Zm-18.38,0a3.16,3.16,0,1,1-3.16,3.16A3.16,3.16,0,0,1,1015.87,142.45Zm9-3.13h.21l.21,0,.21,0,.2,0,.2,0,.2.05.19.07.18.07.19.09a.91.91,0,0,1,.17.09l.18.1.17.1.16.12.15.12.15.13.15.14.13.14.13.15a1,1,0,0,1,.12.16l.12.16c0,.05.07.11.11.17l.1.17.09.18.08.18a1.07,1.07,0,0,1,.07.19,1.07,1.07,0,0,1,.07.19,1.33,1.33,0,0,1,0,.19,1.94,1.94,0,0,1,.05.2c0,.07,0,.14,0,.21a1.23,1.23,0,0,1,0,.2,1.49,1.49,0,0,1,0,.21v.43a1.49,1.49,0,0,1,0,.21,1.36,1.36,0,0,1,0,.2c0,.07,0,.14,0,.21a1.94,1.94,0,0,1-.05.2,1.33,1.33,0,0,1,0,.19,4045650785385.08,4045650785385.08,0,0,1-.14.38l-.08.18-.09.18-.1.17c0,.06-.07.12-.11.17l-.12.16a1,1,0,0,1-.12.16l-.13.15-.13.14-.15.14-.15.13-.15.12-.16.12-.17.1-.18.1-.17.09-.19.09-.18.07-.19.06-.2.06-.2.05-.2,0-.21,0h-.84l-.21,0-.2,0-.2-.05-.2-.06-.19-.06-.19-.07-.18-.09-.18-.09-.17-.1-.17-.1-.16-.12-.16-.12-.15-.13-.14-.14a1.85,1.85,0,0,1-.14-.14l-.13-.15-.12-.16a.91.91,0,0,1-.11-.16,1,1,0,0,1-.11-.17l-.1-.17-.09-.18a1.42,1.42,0,0,1-.08-.18c0-.06-.05-.12-.08-.19l-.06-.19-.06-.19c0-.07,0-.14,0-.2a1.55,1.55,0,0,1,0-.21l0-.2c0-.07,0-.14,0-.21a1.48,1.48,0,0,1,0-.21,1.55,1.55,0,0,1,0-.22c0-.07,0-.14,0-.21l0-.2a1.55,1.55,0,0,1,0-.21c0-.06,0-.13,0-.2l.06-.19.06-.19c0-.07,0-.13.08-.19a1.42,1.42,0,0,1,.08-.18l.09-.18.1-.17a1,1,0,0,1,.11-.17.91.91,0,0,1,.11-.16l.12-.16.13-.15a1.85,1.85,0,0,1,.14-.14l.14-.14.15-.13.16-.12.16-.12.17-.1.17-.1a1.51,1.51,0,0,1,.18-.09l.18-.09.19-.07.19-.07.2-.05.2,0,.2,0,.21,0,.21,0Z"/><path class="cls-30" d="M35.47,125.81l-.15,4.7a3,3,0,0,1-3.61,2.73l-2.94-.08v13.35a.54.54,0,0,0,.54.54H44.4a.54.54,0,0,0,.54-.54V126.34a.54.54,0,0,0-.54-.53Zm-.14-2.16H44.4a2.7,2.7,0,0,1,2.7,2.69v20.17a2.7,2.7,0,0,1-2.7,2.7H29.31a2.7,2.7,0,0,1-2.69-2.7V132.84l1.07-1.13v0l5.59-5.87h0l-1.49,1.57,1.56-1.66h0l0,0h0Zm3.41-3.25H50.81v22H48.68V122.3H38.74Z"/><circle class="cls-5" cx="1271.88" cy="149.63" r="26.82"/><path class="cls-30" d="M1259.38,142.39h0l5.9,5.78,6.57,6.44,6.57-6.44,5.89-5.78h0v16.4h-25Zm1.48-1.92h22l-5.51,5.53-5.51,5.52-5.5-5.52Z"/></g></svg>